<svg id="svg" version="1.1" xmlns="http://www.w3.org/2000/svg" xmlns:xlink="http://www.w3.org/1999/xlink" width="400" height="400" viewBox="0, 0, 400,400"><g id="svgg"><path id="path0" d="M229.743 37.900 C 228.292 40.925,225.977 45.740,224.598 48.600 C 223.219 51.460,221.060 55.960,219.799 58.600 C 218.539 61.240,216.293 65.920,214.808 69.000 C 213.324 72.080,211.249 76.400,210.198 78.600 C 203.942 91.697,201.483 96.794,200.675 98.343 C 199.850 99.925,199.287 100.334,194.583 102.772 C 189.553 105.378,181.219 109.710,172.200 114.406 C 168.073 116.554,164.453 118.437,152.500 124.652 C 149.805 126.053,145.350 128.370,142.600 129.800 C 139.850 131.230,135.305 133.593,132.500 135.052 C 129.695 136.510,125.420 138.735,123.000 139.994 C 109.354 147.099,105.529 149.085,103.000 150.378 L 100.200 151.810 93.391 161.935 C 89.645 167.504,86.315 172.390,85.991 172.793 C 85.666 173.196,81.170 179.862,76.000 187.607 C 70.830 195.352,66.330 202.009,66.000 202.400 C 65.670 202.791,61.170 209.456,56.000 217.212 C 50.830 224.967,46.418 231.512,46.195 231.756 C 44.811 233.273,40.800 239.677,40.800 240.371 C 40.800 241.606,49.453 250.122,50.253 249.674 C 50.584 249.489,62.857 237.371,77.527 222.744 C 92.197 208.117,106.450 194.091,109.200 191.575 C 111.950 189.059,114.290 186.910,114.400 186.800 C 114.510 186.690,116.850 184.530,119.600 182.000 C 122.350 179.470,124.690 177.310,124.800 177.200 C 124.910 177.090,127.250 174.930,130.000 172.400 C 132.750 169.870,135.090 167.710,135.200 167.600 C 135.310 167.490,137.650 165.331,140.400 162.802 C 143.150 160.273,146.480 157.182,147.800 155.934 C 152.470 151.516,148.989 152.000,176.115 152.000 L 199.903 152.000 200.324 150.900 C 200.798 149.658,201.688 146.919,203.603 140.800 C 204.326 138.490,205.405 135.070,206.000 133.200 C 206.595 131.330,207.675 127.910,208.400 125.600 C 209.125 123.290,210.205 119.870,210.800 118.000 C 211.395 116.130,212.475 112.710,213.200 110.400 C 213.925 108.090,215.005 104.670,215.600 102.800 C 216.195 100.930,217.275 97.510,218.000 95.200 C 218.725 92.890,219.805 89.470,220.400 87.600 C 220.995 85.730,222.075 82.310,222.800 80.000 C 223.525 77.690,224.605 74.270,225.200 72.400 C 225.795 70.530,226.875 67.110,227.600 64.800 C 228.325 62.490,229.405 59.070,230.000 57.200 C 230.595 55.330,231.675 51.910,232.400 49.600 C 233.125 47.290,234.215 43.870,234.823 42.000 C 236.716 36.178,236.719 36.298,234.638 34.217 C 232.322 31.901,232.789 31.549,229.743 37.900 M249.203 150.597 L 199.807 199.994 175.825 200.097 L 151.842 200.200 150.691 202.400 C 150.058 203.610,148.044 207.480,146.216 211.000 C 144.388 214.520,141.768 219.560,140.394 222.200 C 137.864 227.062,134.777 232.997,130.148 241.900 C 128.747 244.595,126.430 249.050,125.000 251.800 C 123.570 254.550,121.230 259.050,119.800 261.800 C 118.370 264.550,116.007 269.095,114.548 271.900 C 113.090 274.705,110.865 278.980,109.606 281.400 C 102.014 295.981,100.763 298.496,100.985 298.719 C 101.121 298.854,112.792 287.407,126.921 273.279 L 152.610 247.593 200.389 223.696 L 248.168 199.800 249.314 197.600 C 249.944 196.390,251.956 192.520,253.784 189.000 C 255.612 185.480,258.232 180.440,259.606 177.800 C 262.036 173.131,264.515 168.363,269.748 158.300 C 271.149 155.605,273.489 151.105,274.948 148.300 C 278.237 141.976,281.985 134.768,285.452 128.100 C 286.910 125.295,289.135 121.020,290.394 118.600 C 299.801 100.532,299.475 101.200,298.899 101.200 C 298.734 101.200,276.371 123.429,249.203 150.597 M395.600 202.022 C 395.270 202.227,392.030 203.813,388.400 205.544 C 380.961 209.092,379.024 210.021,357.300 220.448 C 354.495 221.794,349.995 223.954,347.300 225.248 C 344.605 226.542,340.150 228.680,337.400 230.000 C 324.847 236.026,321.905 237.437,317.600 239.501 C 315.070 240.714,309.850 243.228,306.000 245.087 C 302.150 246.947,297.650 248.910,296.000 249.451 C 294.350 249.991,292.640 250.594,292.200 250.790 C 291.760 250.987,290.680 251.376,289.800 251.655 C 288.920 251.935,288.029 252.307,287.820 252.482 C 287.611 252.657,287.114 252.800,286.715 252.800 C 286.316 252.800,285.677 252.971,285.295 253.181 C 284.913 253.391,283.430 253.943,282.000 254.407 C 280.570 254.872,279.040 255.409,278.600 255.600 C 278.160 255.791,276.630 256.328,275.200 256.793 C 273.770 257.257,272.287 257.809,271.905 258.019 C 271.523 258.229,270.884 258.400,270.485 258.400 C 270.086 258.400,269.589 258.548,269.380 258.728 C 269.171 258.908,267.650 259.482,266.000 260.002 C 264.350 260.523,262.820 261.063,262.600 261.202 C 262.380 261.342,261.390 261.700,260.400 261.998 C 259.410 262.295,258.429 262.688,258.220 262.870 C 258.011 263.051,257.514 263.200,257.115 263.200 C 256.716 263.200,256.077 263.371,255.695 263.581 C 255.313 263.791,253.830 264.343,252.400 264.807 C 250.970 265.272,249.440 265.800,249.000 265.981 C 248.560 266.162,246.760 266.770,245.000 267.332 C 243.240 267.894,239.730 269.097,237.200 270.003 C 234.670 270.910,231.610 271.989,230.400 272.400 C 229.190 272.811,226.130 273.890,223.600 274.798 C 221.070 275.705,217.470 276.966,215.600 277.600 C 213.730 278.234,210.130 279.495,207.600 280.402 C 205.070 281.310,202.010 282.389,200.800 282.800 C 199.590 283.211,196.530 284.290,194.000 285.198 C 191.470 286.105,187.870 287.366,186.000 288.000 C 184.130 288.634,180.530 289.895,178.000 290.802 C 175.470 291.710,172.410 292.789,171.200 293.200 C 169.990 293.611,166.930 294.690,164.400 295.598 C 161.870 296.505,158.192 297.783,156.226 298.436 C 151.806 299.906,152.077 299.668,149.788 304.113 C 148.745 306.141,146.905 309.690,145.701 312.000 C 144.496 314.310,142.156 318.810,140.500 322.000 C 138.844 325.190,136.794 329.120,135.945 330.734 C 135.095 332.348,134.400 333.924,134.400 334.236 C 134.400 335.380,149.566 350.048,150.317 349.629 C 150.693 349.420,162.069 338.168,175.599 324.624 L 200.198 300.000 224.142 300.000 L 248.087 300.000 251.077 298.000 C 252.721 296.900,254.139 296.000,254.226 296.000 C 254.314 296.000,261.149 291.500,269.416 286.000 C 277.683 280.500,284.523 276.000,284.616 276.000 C 284.709 276.000,291.549 271.500,299.816 266.000 C 308.083 260.500,314.923 256.000,315.016 256.000 C 315.109 256.000,321.949 251.500,330.216 246.000 C 338.483 240.500,345.323 236.000,345.416 236.000 C 345.509 236.000,352.314 231.523,360.539 226.051 C 368.764 220.579,375.677 216.034,375.902 215.951 C 376.803 215.619,396.781 202.180,396.790 201.900 C 396.803 201.508,396.348 201.555,395.600 202.022 " stroke="none" fill="#d3cbc4" fill-rule="evenodd"></path><path id="path1" d="M99.700 99.833 C 33.633 165.944,0.400 199.468,0.400 200.001 C 0.400 201.167,23.832 224.534,24.579 224.113 C 25.115 223.811,28.220 220.878,38.000 211.432 C 40.530 208.989,47.010 202.766,52.400 197.603 C 60.660 189.691,66.286 184.294,72.001 178.800 C 72.573 178.250,75.192 175.725,77.821 173.190 C 102.867 149.029,98.341 152.639,113.400 144.812 C 116.920 142.982,121.780 140.454,124.200 139.194 C 126.620 137.935,130.895 135.710,133.700 134.252 C 136.505 132.793,141.005 130.453,143.700 129.052 C 146.395 127.651,150.895 125.311,153.700 123.852 C 156.505 122.393,161.095 120.007,163.900 118.548 C 166.705 117.090,170.980 114.865,173.400 113.606 C 184.297 107.932,190.939 104.479,195.200 102.273 L 199.800 99.891 201.477 96.446 C 202.400 94.551,204.355 90.480,205.823 87.400 C 207.291 84.320,209.620 79.460,211.000 76.600 C 212.379 73.740,214.539 69.240,215.799 66.600 C 217.060 63.960,219.220 59.460,220.599 56.600 C 221.979 53.740,224.138 49.240,225.398 46.600 C 226.658 43.960,228.757 39.602,230.062 36.916 L 232.435 32.032 216.619 16.216 C 204.804 4.402,200.574 0.408,199.901 0.433 C 199.256 0.457,170.821 28.665,99.700 99.833 M236.237 37.700 C 235.631 39.890,232.035 51.436,231.597 52.600 C 231.431 53.040,230.886 54.750,230.386 56.400 C 228.982 61.035,227.131 66.913,226.797 67.800 C 226.631 68.240,226.086 69.950,225.586 71.600 C 224.182 76.235,222.331 82.113,221.997 83.000 C 221.831 83.440,221.286 85.150,220.786 86.800 C 219.382 91.435,217.531 97.313,217.197 98.200 C 217.031 98.640,216.486 100.350,215.986 102.000 C 214.582 106.635,212.731 112.513,212.397 113.400 C 212.231 113.840,211.686 115.550,211.186 117.200 C 209.782 121.835,207.931 127.713,207.597 128.600 C 207.431 129.040,206.886 130.750,206.386 132.400 C 204.982 137.035,203.131 142.913,202.797 143.800 C 202.631 144.240,202.095 145.950,201.607 147.600 C 201.118 149.250,200.582 150.870,200.416 151.200 C 200.153 151.722,196.985 151.813,176.205 151.903 L 152.297 152.006 147.849 156.100 C 145.402 158.351,142.230 161.286,140.800 162.621 C 139.370 163.957,137.032 166.119,135.605 167.425 C 134.178 168.731,131.838 170.891,130.405 172.225 C 128.972 173.559,126.632 175.719,125.205 177.025 C 123.778 178.331,121.438 180.491,120.005 181.825 C 118.572 183.159,116.232 185.319,114.805 186.625 C 113.378 187.931,111.038 190.096,109.605 191.435 C 108.172 192.774,105.812 194.934,104.360 196.235 C 102.908 197.536,90.060 210.232,75.809 224.449 L 49.897 250.299 74.548 274.949 C 88.106 288.507,99.469 299.600,99.799 299.600 C 100.130 299.600,100.400 299.871,100.400 300.201 C 100.400 301.028,133.599 334.165,134.003 333.741 C 134.441 333.279,135.746 330.878,139.296 324.000 C 140.943 320.810,143.422 316.040,144.805 313.400 C 146.188 310.760,148.275 306.732,149.444 304.449 C 151.825 299.797,151.907 299.720,155.800 298.463 C 157.340 297.966,158.960 297.400,159.400 297.206 C 159.840 297.011,161.370 296.469,162.800 296.000 C 164.230 295.531,165.760 294.991,166.200 294.800 C 166.640 294.609,168.170 294.072,169.600 293.607 C 171.030 293.143,172.513 292.591,172.895 292.381 C 173.277 292.171,173.922 292.000,174.328 292.000 C 174.734 292.000,175.184 291.882,175.328 291.738 C 175.586 291.481,179.306 290.135,185.200 288.168 C 186.850 287.617,188.560 287.006,189.000 286.809 C 189.440 286.613,190.970 286.069,192.400 285.600 C 193.830 285.131,195.360 284.591,195.800 284.400 C 196.240 284.209,197.770 283.669,199.200 283.200 C 200.630 282.731,202.160 282.190,202.600 281.998 C 203.424 281.638,209.511 279.526,214.800 277.765 C 216.450 277.216,218.160 276.606,218.600 276.409 C 219.040 276.213,220.570 275.669,222.000 275.200 C 223.430 274.731,224.960 274.191,225.400 274.000 C 225.840 273.809,227.370 273.272,228.800 272.807 C 230.230 272.343,231.713 271.791,232.095 271.581 C 232.477 271.371,233.064 271.200,233.400 271.200 C 233.736 271.200,234.323 271.029,234.705 270.819 C 235.087 270.609,236.570 270.037,238.000 269.548 C 239.430 269.058,242.220 268.093,244.200 267.403 L 247.800 266.147 247.908 257.074 L 248.015 248.000 273.781 248.000 L 299.546 248.000 305.273 245.247 C 308.423 243.732,313.295 241.392,316.100 240.047 C 321.089 237.653,325.822 235.382,336.100 230.448 C 338.905 229.102,343.450 226.920,346.200 225.600 C 348.950 224.280,353.450 222.120,356.200 220.800 C 358.950 219.480,363.450 217.320,366.200 216.000 C 368.950 214.680,373.495 212.498,376.300 211.152 C 389.862 204.641,392.014 203.611,394.889 202.256 C 396.587 201.455,398.342 200.800,398.789 200.800 C 399.333 200.800,399.600 200.537,399.600 200.000 C 399.600 199.052,301.146 100.400,300.200 100.400 C 299.870 100.400,299.600 100.130,299.600 99.799 C 299.600 99.006,237.782 37.200,236.988 37.200 C 236.651 37.200,236.313 37.425,236.237 37.700 M299.185 101.840 C 298.967 102.413,297.823 104.708,296.643 106.940 C 295.463 109.173,293.194 113.520,291.600 116.600 C 290.006 119.680,287.667 124.180,286.401 126.600 C 285.136 129.020,282.796 133.520,281.201 136.600 C 279.607 139.680,277.267 144.180,276.001 146.600 C 274.736 149.020,272.396 153.520,270.801 156.600 C 269.207 159.680,266.867 164.180,265.601 166.600 C 264.336 169.020,261.996 173.520,260.401 176.600 C 258.806 179.680,256.372 184.360,254.993 187.000 C 253.613 189.640,251.553 193.600,250.415 195.800 L 248.346 199.800 224.274 223.900 L 200.202 248.000 176.202 248.000 L 152.202 248.000 126.517 273.683 C 112.390 287.808,100.731 299.264,100.607 299.140 C 100.483 299.016,101.531 296.684,102.935 293.958 C 106.300 287.425,110.496 279.336,113.600 273.400 C 114.980 270.760,117.320 266.260,118.800 263.400 C 120.280 260.540,122.620 256.040,124.000 253.400 C 125.380 250.760,127.720 246.260,129.200 243.400 C 130.680 240.540,133.020 236.040,134.400 233.400 C 135.780 230.760,138.121 226.260,139.600 223.400 C 141.080 220.540,143.517 215.860,145.016 213.000 C 146.514 210.140,148.631 206.045,149.719 203.900 L 151.698 200.000 175.750 200.000 L 199.801 200.000 249.400 150.400 C 276.679 123.120,299.130 100.800,299.289 100.800 C 299.449 100.800,299.402 101.268,299.185 101.840 M391.800 205.650 C 389.160 207.382,380.430 213.122,372.400 218.407 C 337.472 241.392,326.232 248.787,311.922 258.200 C 303.560 263.700,289.942 272.660,281.660 278.112 C 273.377 283.563,262.498 290.718,257.485 294.012 L 248.371 300.000 224.284 300.000 L 200.198 300.000 175.049 325.151 L 149.900 350.302 174.549 374.951 C 190.736 391.138,199.473 399.600,199.999 399.600 C 200.980 399.600,397.453 203.278,396.940 202.811 C 396.753 202.641,394.440 203.918,391.800 205.650 " stroke="none" fill="#34348c" fill-rule="evenodd"></path><path id="path2" d="M99.500 99.500 C 18.382 180.618,-0.000 199.192,0.000 200.035 C 0.000 201.594,198.221 399.742,199.962 399.923 C 201.706 400.105,400.000 201.925,400.000 200.000 C 400.000 198.262,201.837 0.000,200.099 0.000 C 199.169 0.000,183.662 15.338,99.500 99.500 M216.616 16.214 C 226.003 25.601,232.318 32.210,232.153 32.476 C 231.987 32.745,232.057 32.812,232.330 32.643 C 233.010 32.223,236.522 35.890,236.290 36.778 C 236.150 37.314,236.284 37.451,236.814 37.312 C 237.637 37.097,299.600 98.765,299.600 99.799 C 299.600 100.130,299.870 100.400,300.200 100.400 C 301.146 100.400,399.600 199.052,399.600 200.000 C 399.600 200.561,399.331 200.802,398.700 200.806 C 397.321 200.816,396.656 201.405,396.913 202.389 C 397.199 203.483,201.378 399.600,199.999 399.600 C 198.961 399.600,149.851 350.565,150.247 349.924 C 150.410 349.660,150.344 349.588,150.084 349.748 C 149.539 350.085,134.400 335.056,134.400 334.178 C 134.400 333.834,134.226 333.660,134.014 333.791 C 133.519 334.098,100.400 301.002,100.400 300.201 C 100.400 299.871,100.130 299.600,99.799 299.600 C 98.922 299.600,49.911 250.467,50.247 249.924 C 50.409 249.662,50.344 249.588,50.089 249.745 C 49.454 250.138,40.800 241.404,40.800 240.371 C 40.800 239.677,44.811 233.273,46.195 231.756 C 46.418 231.512,50.830 224.967,56.000 217.212 C 61.170 209.456,65.670 202.791,66.000 202.400 C 66.330 202.009,70.830 195.352,76.000 187.607 C 81.170 179.862,85.663 173.199,85.985 172.800 C 86.306 172.401,89.689 167.423,93.501 161.738 L 100.433 151.400 96.744 155.000 C 94.715 156.980,92.583 159.050,92.008 159.600 C 88.883 162.585,81.486 169.679,76.396 174.573 C 66.186 184.391,62.406 188.018,52.400 197.603 C 47.010 202.766,40.530 208.989,38.000 211.432 C 28.220 220.878,25.115 223.811,24.579 224.113 C 23.832 224.534,0.400 201.167,0.400 200.001 C 0.400 198.828,198.683 0.478,199.901 0.433 C 200.574 0.408,204.804 4.401,216.616 16.214 M149.178 154.700 L 147.800 156.200 149.300 154.822 C 150.696 153.538,150.984 153.200,150.678 153.200 C 150.612 153.200,149.937 153.875,149.178 154.700 M138.778 164.300 L 137.400 165.800 138.900 164.422 C 140.296 163.138,140.584 162.800,140.278 162.800 C 140.212 162.800,139.537 163.475,138.778 164.300 M128.378 173.900 L 127.000 175.400 128.500 174.022 C 129.896 172.738,130.184 172.400,129.878 172.400 C 129.812 172.400,129.137 173.075,128.378 173.900 M117.978 183.500 L 116.600 185.000 118.100 183.622 C 118.925 182.863,119.600 182.188,119.600 182.122 C 119.600 181.816,119.262 182.104,117.978 183.500 M107.578 193.100 L 106.200 194.600 107.700 193.222 C 108.525 192.463,109.200 191.788,109.200 191.722 C 109.200 191.416,108.862 191.704,107.578 193.100 M200.200 223.745 L 152.200 247.800 176.196 247.903 L 200.193 248.006 224.396 223.803 C 237.708 210.491,248.509 199.620,248.400 199.645 C 248.290 199.670,226.600 210.515,200.200 223.745 M247.914 257.200 C 247.803 266.188,247.908 267.032,249.020 266.072 C 249.229 265.892,250.750 265.319,252.400 264.800 C 254.050 264.281,255.571 263.708,255.780 263.528 C 255.989 263.348,256.538 263.200,257.000 263.200 C 257.462 263.200,258.011 263.051,258.220 262.870 C 258.429 262.688,259.410 262.295,260.400 261.998 C 261.390 261.700,262.380 261.342,262.600 261.202 C 262.820 261.063,264.350 260.523,266.000 260.002 C 267.650 259.482,269.171 258.908,269.380 258.728 C 269.589 258.548,270.086 258.400,270.485 258.400 C 270.884 258.400,271.523 258.229,271.905 258.019 C 272.287 257.809,273.770 257.257,275.200 256.793 C 276.630 256.328,278.160 255.791,278.600 255.600 C 279.040 255.409,280.570 254.872,282.000 254.407 C 283.430 253.943,284.913 253.391,285.295 253.181 C 285.677 252.971,286.316 252.800,286.715 252.800 C 287.114 252.800,287.611 252.651,287.820 252.470 C 288.029 252.288,289.010 251.895,290.000 251.598 C 290.990 251.300,291.980 250.939,292.200 250.797 C 292.420 250.654,294.175 250.035,296.100 249.421 C 298.025 248.808,299.600 248.237,299.600 248.153 C 299.600 248.069,287.996 248.000,273.814 248.000 L 248.029 248.000 247.914 257.200 " stroke="none" fill="#a59863" fill-rule="evenodd"></path></g></svg>