<svg width="347px" height="404px"
 viewBox="0.00 0.00 346.66 404.00" xmlns="http://www.w3.org/2000/svg" xmlns:xlink="http://www.w3.org/1999/xlink">
<g id="graph0" class="graph" transform="scale(1.0 1.0) rotate(0.0) translate(4.0 400.0)">
<title>Graph Test</title>
<polygon fill="white" stroke="transparent" points="-4,4 -4,-400 342.66,-400 342.66,4 -4,4"/>
<!-- 1 -->
<g id="node1" class="node">
<title>1</title>
<polygon fill="none" stroke="black" points="252.38,-396 166.94,-396 166.94,-360 252.38,-360 252.38,-396"/>
<text text-anchor="middle" x="209.66" y="-373.8" font-family="Times,serif" font-size="14.00">PROGRAM</text>
</g>
<!-- 2 -->
<g id="node2" class="node">
<title>2</title>
<polygon fill="none" stroke="black" points="134.66,-324 80.66,-324 80.66,-288 134.66,-288 134.66,-324"/>
<text text-anchor="middle" x="107.66" y="-301.8" font-family="Times,serif" font-size="14.00">VAR</text>
</g>
<!-- 1&#45;&gt;2 -->
<g id="edge1" class="edge">
<title>1&#45;&gt;2</title>
<path fill="none" stroke="black" d="M184.71,-359.88C171.62,-350.89 155.4,-339.76 141.22,-330.03"/>
<polygon fill="black" stroke="black" points="142.93,-326.96 132.71,-324.19 138.97,-332.73 142.93,-326.96"/>
</g>
<!-- 12 -->
<g id="node11" class="node">
<title>12</title>
<polygon fill="none" stroke="black" points="266.82,-324 175.89,-324 152.5,-288 243.43,-288 266.82,-324"/>
<text text-anchor="middle" x="209.66" y="-301.8" font-family="Times,serif" font-size="14.00">PRINT</text>
</g>
<!-- 1&#45;&gt;12 -->
<g id="edge2" class="edge">
<title>1&#45;&gt;12</title>
<path fill="none" stroke="black" d="M209.66,-359.7C209.66,-351.98 209.66,-342.71 209.66,-334.11"/>
<polygon fill="black" stroke="black" points="213.16,-334.1 209.66,-324.1 206.16,-334.1 213.16,-334.1"/>
</g>
<!-- 13 -->
<g id="node13" class="node">
<title>13</title>
<polygon fill="none" stroke="black" points="338.66,-324 284.66,-324 284.66,-288 338.66,-288 338.66,-324"/>
<text text-anchor="middle" x="311.66" y="-301.8" font-family="Times,serif" font-size="14.00">HALT</text>
</g>
<!-- 1&#45;&gt;13 -->
<g id="edge3" class="edge">
<title>1&#45;&gt;13</title>
<path fill="none" stroke="black" d="M234.61,-359.88C247.7,-350.89 263.92,-339.76 278.1,-330.03"/>
<polygon fill="black" stroke="black" points="280.35,-332.73 286.61,-324.19 276.39,-326.96 280.35,-332.73"/>
</g>
<!-- 3 -->
<g id="node3" class="node">
<title>3</title>
<ellipse fill="none" stroke="black" cx="38.66" cy="-234" rx="38.82" ry="18"/>
<text text-anchor="middle" x="38.66" y="-229.8" font-family="Times,serif" font-size="14.00">Real: u</text>
</g>
<!-- 2&#45;&gt;3 -->
<g id="edge4" class="edge">
<title>2&#45;&gt;3</title>
<path fill="none" stroke="black" d="M90.6,-287.7C81.79,-278.75 70.91,-267.71 61.39,-258.06"/>
<polygon fill="black" stroke="black" points="63.62,-255.34 54.11,-250.67 58.63,-260.25 63.62,-255.34"/>
</g>
<!-- 9 -->
<g id="node4" class="node">
<title>9</title>
<polygon fill="none" stroke="black" points="149.66,-252 95.66,-252 95.66,-216 149.66,-216 149.66,-252"/>
<text text-anchor="middle" x="122.66" y="-229.8" font-family="Times,serif" font-size="14.00">/</text>
</g>
<!-- 2&#45;&gt;9 -->
<g id="edge5" class="edge">
<title>2&#45;&gt;9</title>
<path fill="none" stroke="black" d="M111.37,-287.7C113.02,-279.98 115.01,-270.71 116.85,-262.11"/>
<polygon fill="black" stroke="black" points="120.32,-262.62 118.99,-252.1 113.48,-261.15 120.32,-262.62"/>
</g>
<!-- 5 -->
<g id="node5" class="node">
<title>5</title>
<polygon fill="none" stroke="black" points="113.66,-180 59.66,-180 59.66,-144 113.66,-144 113.66,-180"/>
<text text-anchor="middle" x="86.66" y="-157.8" font-family="Times,serif" font-size="14.00">+</text>
</g>
<!-- 9&#45;&gt;5 -->
<g id="edge6" class="edge">
<title>9&#45;&gt;5</title>
<path fill="none" stroke="black" d="M113.76,-215.7C109.66,-207.73 104.71,-198.1 100.17,-189.26"/>
<polygon fill="black" stroke="black" points="103.14,-187.4 95.46,-180.1 96.92,-190.6 103.14,-187.4"/>
</g>
<!-- 10 -->
<g id="node10" class="node">
<title>10</title>
<ellipse fill="none" stroke="black" cx="158.66" cy="-162" rx="27" ry="18"/>
<text text-anchor="middle" x="158.66" y="-157.8" font-family="Times,serif" font-size="14.00">4.0</text>
</g>
<!-- 9&#45;&gt;10 -->
<g id="edge7" class="edge">
<title>9&#45;&gt;10</title>
<path fill="none" stroke="black" d="M131.56,-215.7C135.82,-207.4 141.01,-197.31 145.71,-188.19"/>
<polygon fill="black" stroke="black" points="148.9,-189.64 150.36,-179.14 142.67,-186.44 148.9,-189.64"/>
</g>
<!-- 4 -->
<g id="node6" class="node">
<title>4</title>
<ellipse fill="none" stroke="black" cx="50.66" cy="-90" rx="27" ry="18"/>
<text text-anchor="middle" x="50.66" y="-85.8" font-family="Times,serif" font-size="14.00">1.0</text>
</g>
<!-- 5&#45;&gt;4 -->
<g id="edge8" class="edge">
<title>5&#45;&gt;4</title>
<path fill="none" stroke="black" d="M77.76,-143.7C73.5,-135.4 68.31,-125.31 63.61,-116.19"/>
<polygon fill="black" stroke="black" points="66.65,-114.44 58.96,-107.14 60.42,-117.64 66.65,-114.44"/>
</g>
<!-- 7 -->
<g id="node7" class="node">
<title>7</title>
<polygon fill="none" stroke="black" points="149.66,-108 95.66,-108 95.66,-72 149.66,-72 149.66,-108"/>
<text text-anchor="middle" x="122.66" y="-85.8" font-family="Times,serif" font-size="14.00">/</text>
</g>
<!-- 5&#45;&gt;7 -->
<g id="edge9" class="edge">
<title>5&#45;&gt;7</title>
<path fill="none" stroke="black" d="M95.56,-143.7C99.66,-135.73 104.61,-126.1 109.15,-117.26"/>
<polygon fill="black" stroke="black" points="112.4,-118.6 113.86,-108.1 106.18,-115.4 112.4,-118.6"/>
</g>
<!-- 6 -->
<g id="node8" class="node">
<title>6</title>
<ellipse fill="none" stroke="black" cx="86.66" cy="-18" rx="27" ry="18"/>
<text text-anchor="middle" x="86.66" y="-13.8" font-family="Times,serif" font-size="14.00">2.0</text>
</g>
<!-- 7&#45;&gt;6 -->
<g id="edge10" class="edge">
<title>7&#45;&gt;6</title>
<path fill="none" stroke="black" d="M113.76,-71.7C109.5,-63.4 104.31,-53.31 99.61,-44.19"/>
<polygon fill="black" stroke="black" points="102.65,-42.44 94.96,-35.14 96.42,-45.64 102.65,-42.44"/>
</g>
<!-- 8 -->
<g id="node9" class="node">
<title>8</title>
<ellipse fill="none" stroke="black" cx="158.66" cy="-18" rx="27" ry="18"/>
<text text-anchor="middle" x="158.66" y="-13.8" font-family="Times,serif" font-size="14.00">3.0</text>
</g>
<!-- 7&#45;&gt;8 -->
<g id="edge11" class="edge">
<title>7&#45;&gt;8</title>
<path fill="none" stroke="black" d="M131.56,-71.7C135.82,-63.4 141.01,-53.31 145.71,-44.19"/>
<polygon fill="black" stroke="black" points="148.9,-45.64 150.36,-35.14 142.67,-42.44 148.9,-45.64"/>
</g>
<!-- 11 -->
<g id="node12" class="node">
<title>11</title>
<ellipse fill="none" stroke="black" cx="209.66" cy="-234" rx="27" ry="18"/>
<text text-anchor="middle" x="209.66" y="-229.8" font-family="Times,serif" font-size="14.00">u</text>
</g>
<!-- 12&#45;&gt;11 -->
<g id="edge12" class="edge">
<title>12&#45;&gt;11</title>
<path fill="none" stroke="black" d="M209.66,-287.7C209.66,-279.98 209.66,-270.71 209.66,-262.11"/>
<polygon fill="black" stroke="black" points="213.16,-262.1 209.66,-252.1 206.16,-262.1 213.16,-262.1"/>
</g>
</g>
</svg>
