<svg width="621px" height="332px"
 viewBox="0.00 0.00 620.91 332.00" xmlns="http://www.w3.org/2000/svg" xmlns:xlink="http://www.w3.org/1999/xlink">
<g id="graph0" class="graph" transform="scale(1.0 1.0) rotate(0.0) translate(4.0 328.0)">
<title>Graph Test</title>
<polygon fill="white" stroke="transparent" points="-4,4 -4,-328 616.91,-328 616.91,4 -4,4"/>
<!-- 1 -->
<g id="node1" class="node">
<title>1</title>
<polygon fill="none" stroke="black" points="467.55,-324 382.11,-324 382.11,-288 467.55,-288 467.55,-324"/>
<text text-anchor="middle" x="424.83" y="-301.8" font-family="Times,serif" font-size="14.00">PROGRAM</text>
</g>
<!-- 2 -->
<g id="node2" class="node">
<title>2</title>
<polygon fill="none" stroke="black" points="283.83,-252 229.83,-252 229.83,-216 283.83,-216 283.83,-252"/>
<text text-anchor="middle" x="256.83" y="-229.8" font-family="Times,serif" font-size="14.00">VAR</text>
</g>
<!-- 1&#45;&gt;2 -->
<g id="edge1" class="edge">
<title>1&#45;&gt;2</title>
<path fill="none" stroke="black" d="M383.74,-287.88C356.05,-276.34 319.87,-261.26 293.22,-250.16"/>
<polygon fill="black" stroke="black" points="294.45,-246.88 283.87,-246.27 291.76,-253.34 294.45,-246.88"/>
</g>
<!-- 14 -->
<g id="node14" class="node">
<title>14</title>
<polygon fill="none" stroke="black" points="424.83,-252 382.5,-234 424.83,-216 467.17,-234 424.83,-252"/>
<text text-anchor="middle" x="424.83" y="-229.8" font-family="Times,serif" font-size="14.00">FOR</text>
</g>
<!-- 1&#45;&gt;14 -->
<g id="edge2" class="edge">
<title>1&#45;&gt;14</title>
<path fill="none" stroke="black" d="M424.83,-287.7C424.83,-279.98 424.83,-270.71 424.83,-262.11"/>
<polygon fill="black" stroke="black" points="428.33,-262.1 424.83,-252.1 421.33,-262.1 428.33,-262.1"/>
</g>
<!-- 20 -->
<g id="node20" class="node">
<title>20</title>
<polygon fill="none" stroke="black" points="538.83,-252 484.83,-252 484.83,-216 538.83,-216 538.83,-252"/>
<text text-anchor="middle" x="511.83" y="-229.8" font-family="Times,serif" font-size="14.00">HALT</text>
</g>
<!-- 1&#45;&gt;20 -->
<g id="edge3" class="edge">
<title>1&#45;&gt;20</title>
<path fill="none" stroke="black" d="M446.34,-287.7C457.3,-278.88 470.78,-268.03 482.66,-258.47"/>
<polygon fill="black" stroke="black" points="484.98,-261.1 490.57,-252.1 480.59,-255.65 484.98,-261.1"/>
</g>
<!-- 3 -->
<g id="node3" class="node">
<title>3</title>
<ellipse fill="none" stroke="black" cx="141.83" cy="-162" rx="55.05" ry="18"/>
<text text-anchor="middle" x="141.83" y="-157.8" font-family="Times,serif" font-size="14.00">Int[]: evens</text>
</g>
<!-- 2&#45;&gt;3 -->
<g id="edge4" class="edge">
<title>2&#45;&gt;3</title>
<path fill="none" stroke="black" d="M229.58,-216.41C213.4,-206.56 192.76,-194 175.56,-183.53"/>
<polygon fill="black" stroke="black" points="177.29,-180.48 166.93,-178.27 173.65,-186.46 177.29,-180.48"/>
</g>
<!-- 4 -->
<g id="node4" class="node">
<title>4</title>
<polygon fill="none" stroke="black" points="256.83,-180 214.5,-162 256.83,-144 299.17,-162 256.83,-180"/>
<text text-anchor="middle" x="256.83" y="-157.8" font-family="Times,serif" font-size="14.00">FOR</text>
</g>
<!-- 2&#45;&gt;4 -->
<g id="edge5" class="edge">
<title>2&#45;&gt;4</title>
<path fill="none" stroke="black" d="M256.83,-215.7C256.83,-207.98 256.83,-198.71 256.83,-190.11"/>
<polygon fill="black" stroke="black" points="260.33,-190.1 256.83,-180.1 253.33,-190.1 260.33,-190.1"/>
</g>
<!-- 5 -->
<g id="node5" class="node">
<title>5</title>
<polygon fill="none" stroke="black" points="139.5,-108 84.16,-108 84.16,-72 139.5,-72 139.5,-108"/>
<text text-anchor="middle" x="111.83" y="-85.8" font-family="Times,serif" font-size="14.00">FROM</text>
</g>
<!-- 4&#45;&gt;5 -->
<g id="edge6" class="edge">
<title>4&#45;&gt;5</title>
<path fill="none" stroke="black" d="M237.88,-151.85C215.39,-140.99 177.39,-122.65 148.97,-108.93"/>
<polygon fill="black" stroke="black" points="150.27,-105.67 139.74,-104.47 147.23,-111.97 150.27,-105.67"/>
</g>
<!-- 8 -->
<g id="node8" class="node">
<title>8</title>
<polygon fill="none" stroke="black" points="211.83,-108 157.83,-108 157.83,-72 211.83,-72 211.83,-108"/>
<text text-anchor="middle" x="184.83" y="-85.8" font-family="Times,serif" font-size="14.00">TO</text>
</g>
<!-- 4&#45;&gt;8 -->
<g id="edge7" class="edge">
<title>4&#45;&gt;8</title>
<path fill="none" stroke="black" d="M244.62,-149.13C235.14,-139.91 221.68,-126.82 209.93,-115.4"/>
<polygon fill="black" stroke="black" points="212.12,-112.65 202.52,-108.19 207.25,-117.67 212.12,-112.65"/>
</g>
<!-- 10 -->
<g id="node10" class="node">
<title>10</title>
<polygon fill="none" stroke="black" points="283.83,-108 229.83,-108 229.83,-72 283.83,-72 283.83,-108"/>
<text text-anchor="middle" x="256.83" y="-85.8" font-family="Times,serif" font-size="14.00">BY</text>
</g>
<!-- 4&#45;&gt;10 -->
<g id="edge8" class="edge">
<title>4&#45;&gt;10</title>
<path fill="none" stroke="black" d="M256.83,-143.7C256.83,-135.98 256.83,-126.71 256.83,-118.11"/>
<polygon fill="black" stroke="black" points="260.33,-118.1 256.83,-108.1 253.33,-118.1 260.33,-118.1"/>
</g>
<!-- 12 -->
<g id="node12" class="node">
<title>12</title>
<polygon fill="none" stroke="black" points="361.4,-108 302.27,-108 302.27,-72 361.4,-72 361.4,-108"/>
<text text-anchor="middle" x="331.83" y="-85.8" font-family="Times,serif" font-size="14.00">SCOPE</text>
</g>
<!-- 4&#45;&gt;12 -->
<g id="edge9" class="edge">
<title>4&#45;&gt;12</title>
<path fill="none" stroke="black" d="M269.56,-149.13C279.52,-139.82 293.72,-126.57 306.04,-115.07"/>
<polygon fill="black" stroke="black" points="308.49,-117.57 313.41,-108.19 303.71,-112.46 308.49,-117.57"/>
</g>
<!-- 6 -->
<g id="node6" class="node">
<title>6</title>
<ellipse fill="none" stroke="black" cx="33.83" cy="-18" rx="33.67" ry="18"/>
<text text-anchor="middle" x="33.83" y="-13.8" font-family="Times,serif" font-size="14.00">Int: N</text>
</g>
<!-- 5&#45;&gt;6 -->
<g id="edge10" class="edge">
<title>5&#45;&gt;6</title>
<path fill="none" stroke="black" d="M92.55,-71.7C82.1,-62.31 69.08,-50.63 57.95,-40.65"/>
<polygon fill="black" stroke="black" points="60.04,-37.81 50.26,-33.74 55.36,-43.02 60.04,-37.81"/>
</g>
<!-- 7 -->
<g id="node7" class="node">
<title>7</title>
<ellipse fill="none" stroke="black" cx="112.83" cy="-18" rx="27" ry="18"/>
<text text-anchor="middle" x="112.83" y="-13.8" font-family="Times,serif" font-size="14.00">0</text>
</g>
<!-- 5&#45;&gt;7 -->
<g id="edge11" class="edge">
<title>5&#45;&gt;7</title>
<path fill="none" stroke="black" d="M112.08,-71.7C112.19,-63.98 112.32,-54.71 112.45,-46.11"/>
<polygon fill="black" stroke="black" points="115.95,-46.15 112.59,-36.1 108.95,-46.05 115.95,-46.15"/>
</g>
<!-- 9 -->
<g id="node9" class="node">
<title>9</title>
<ellipse fill="none" stroke="black" cx="184.83" cy="-18" rx="27" ry="18"/>
<text text-anchor="middle" x="184.83" y="-13.8" font-family="Times,serif" font-size="14.00">10</text>
</g>
<!-- 8&#45;&gt;9 -->
<g id="edge12" class="edge">
<title>8&#45;&gt;9</title>
<path fill="none" stroke="black" d="M184.83,-71.7C184.83,-63.98 184.83,-54.71 184.83,-46.11"/>
<polygon fill="black" stroke="black" points="188.33,-46.1 184.83,-36.1 181.33,-46.1 188.33,-46.1"/>
</g>
<!-- 11 -->
<g id="node11" class="node">
<title>11</title>
<ellipse fill="none" stroke="black" cx="256.83" cy="-18" rx="27" ry="18"/>
<text text-anchor="middle" x="256.83" y="-13.8" font-family="Times,serif" font-size="14.00">2</text>
</g>
<!-- 10&#45;&gt;11 -->
<g id="edge13" class="edge">
<title>10&#45;&gt;11</title>
<path fill="none" stroke="black" d="M256.83,-71.7C256.83,-63.98 256.83,-54.71 256.83,-46.11"/>
<polygon fill="black" stroke="black" points="260.33,-46.1 256.83,-36.1 253.33,-46.1 260.33,-46.1"/>
</g>
<!-- 13 -->
<g id="node13" class="node">
<title>13</title>
<ellipse fill="none" stroke="black" cx="331.83" cy="-18" rx="27" ry="18"/>
<text text-anchor="middle" x="331.83" y="-13.8" font-family="Times,serif" font-size="14.00">N</text>
</g>
<!-- 12&#45;&gt;13 -->
<g id="edge14" class="edge">
<title>12&#45;&gt;13</title>
<path fill="none" stroke="black" d="M331.83,-71.7C331.83,-63.98 331.83,-54.71 331.83,-46.11"/>
<polygon fill="black" stroke="black" points="335.33,-46.1 331.83,-36.1 328.33,-46.1 335.33,-46.1"/>
</g>
<!-- 15 -->
<g id="node15" class="node">
<title>15</title>
<polygon fill="none" stroke="black" points="451.83,-180 397.83,-180 397.83,-144 451.83,-144 451.83,-180"/>
<text text-anchor="middle" x="424.83" y="-157.8" font-family="Times,serif" font-size="14.00">IN</text>
</g>
<!-- 14&#45;&gt;15 -->
<g id="edge15" class="edge">
<title>14&#45;&gt;15</title>
<path fill="none" stroke="black" d="M424.83,-215.7C424.83,-207.98 424.83,-198.71 424.83,-190.11"/>
<polygon fill="black" stroke="black" points="428.33,-190.1 424.83,-180.1 421.33,-190.1 428.33,-190.1"/>
</g>
<!-- 19 -->
<g id="node18" class="node">
<title>19</title>
<polygon fill="none" stroke="black" points="612.99,-180 522.06,-180 498.67,-144 589.6,-144 612.99,-180"/>
<text text-anchor="middle" x="555.83" y="-157.8" font-family="Times,serif" font-size="14.00">PRINT</text>
</g>
<!-- 14&#45;&gt;19 -->
<g id="edge16" class="edge">
<title>14&#45;&gt;19</title>
<path fill="none" stroke="black" d="M442.77,-223.41C461.23,-213.55 490.61,-197.85 514.8,-184.93"/>
<polygon fill="black" stroke="black" points="516.61,-187.93 523.78,-180.13 513.31,-181.76 516.61,-187.93"/>
</g>
<!-- 16 -->
<g id="node16" class="node">
<title>16</title>
<ellipse fill="none" stroke="black" cx="410.83" cy="-90" rx="31.3" ry="18"/>
<text text-anchor="middle" x="410.83" y="-85.8" font-family="Times,serif" font-size="14.00">Int: e</text>
</g>
<!-- 15&#45;&gt;16 -->
<g id="edge17" class="edge">
<title>15&#45;&gt;16</title>
<path fill="none" stroke="black" d="M421.37,-143.7C419.83,-135.98 417.98,-126.71 416.26,-118.11"/>
<polygon fill="black" stroke="black" points="419.65,-117.22 414.25,-108.1 412.78,-118.6 419.65,-117.22"/>
</g>
<!-- 17 -->
<g id="node17" class="node">
<title>17</title>
<ellipse fill="none" stroke="black" cx="492.83" cy="-90" rx="33.04" ry="18"/>
<text text-anchor="middle" x="492.83" y="-85.8" font-family="Times,serif" font-size="14.00">evens</text>
</g>
<!-- 15&#45;&gt;17 -->
<g id="edge18" class="edge">
<title>15&#45;&gt;17</title>
<path fill="none" stroke="black" d="M441.64,-143.7C450.46,-134.62 461.36,-123.4 470.84,-113.64"/>
<polygon fill="black" stroke="black" points="473.61,-115.81 478.06,-106.2 468.59,-110.94 473.61,-115.81"/>
</g>
<!-- 18 -->
<g id="node19" class="node">
<title>18</title>
<ellipse fill="none" stroke="black" cx="570.83" cy="-90" rx="27" ry="18"/>
<text text-anchor="middle" x="570.83" y="-85.8" font-family="Times,serif" font-size="14.00">e</text>
</g>
<!-- 19&#45;&gt;18 -->
<g id="edge19" class="edge">
<title>19&#45;&gt;18</title>
<path fill="none" stroke="black" d="M559.54,-143.7C561.19,-135.98 563.18,-126.71 565.02,-118.11"/>
<polygon fill="black" stroke="black" points="568.49,-118.62 567.17,-108.1 561.65,-117.15 568.49,-118.62"/>
</g>
</g>
</svg>
