<svg width="424px" height="332px"
 viewBox="0.00 0.00 423.91 332.00" xmlns="http://www.w3.org/2000/svg" xmlns:xlink="http://www.w3.org/1999/xlink">
<g id="graph0" class="graph" transform="scale(1.0 1.0) rotate(0.0) translate(4.0 328.0)">
<title>Graph Test</title>
<polygon fill="white" stroke="transparent" points="-4,4 -4,-328 419.91,-328 419.91,4 -4,4"/>
<!-- 1 -->
<g id="node1" class="node">
<title>1</title>
<polygon fill="none" stroke="black" points="306.55,-324 221.11,-324 221.11,-288 306.55,-288 306.55,-324"/>
<text text-anchor="middle" x="263.83" y="-301.8" font-family="Times,serif" font-size="14.00">PROGRAM</text>
</g>
<!-- 2 -->
<g id="node2" class="node">
<title>2</title>
<polygon fill="none" stroke="black" points="220.83,-252 178.5,-234 220.83,-216 263.17,-234 220.83,-252"/>
<text text-anchor="middle" x="220.83" y="-229.8" font-family="Times,serif" font-size="14.00">FOR</text>
</g>
<!-- 1&#45;&gt;2 -->
<g id="edge1" class="edge">
<title>1&#45;&gt;2</title>
<path fill="none" stroke="black" d="M253.2,-287.7C247.62,-278.62 240.72,-267.38 234.72,-257.61"/>
<polygon fill="black" stroke="black" points="237.54,-255.51 229.32,-248.82 231.58,-259.18 237.54,-255.51"/>
</g>
<!-- 13 -->
<g id="node13" class="node">
<title>13</title>
<polygon fill="none" stroke="black" points="334.83,-252 280.83,-252 280.83,-216 334.83,-216 334.83,-252"/>
<text text-anchor="middle" x="307.83" y="-229.8" font-family="Times,serif" font-size="14.00">HALT</text>
</g>
<!-- 1&#45;&gt;13 -->
<g id="edge2" class="edge">
<title>1&#45;&gt;13</title>
<path fill="none" stroke="black" d="M274.71,-287.7C279.82,-279.56 286.03,-269.69 291.68,-260.7"/>
<polygon fill="black" stroke="black" points="294.72,-262.43 297.08,-252.1 288.8,-258.71 294.72,-262.43"/>
</g>
<!-- 3 -->
<g id="node3" class="node">
<title>3</title>
<polygon fill="none" stroke="black" points="139.5,-180 84.16,-180 84.16,-144 139.5,-144 139.5,-180"/>
<text text-anchor="middle" x="111.83" y="-157.8" font-family="Times,serif" font-size="14.00">FROM</text>
</g>
<!-- 2&#45;&gt;3 -->
<g id="edge3" class="edge">
<title>2&#45;&gt;3</title>
<path fill="none" stroke="black" d="M204.75,-222.67C189.65,-212.98 166.55,-198.14 147.16,-185.69"/>
<polygon fill="black" stroke="black" points="148.86,-182.62 138.55,-180.16 145.08,-188.51 148.86,-182.62"/>
</g>
<!-- 6 -->
<g id="node6" class="node">
<title>6</title>
<polygon fill="none" stroke="black" points="211.83,-180 157.83,-180 157.83,-144 211.83,-144 211.83,-180"/>
<text text-anchor="middle" x="184.83" y="-157.8" font-family="Times,serif" font-size="14.00">TO</text>
</g>
<!-- 2&#45;&gt;6 -->
<g id="edge4" class="edge">
<title>2&#45;&gt;6</title>
<path fill="none" stroke="black" d="M213.55,-218.83C209.19,-210.36 203.51,-199.32 198.36,-189.29"/>
<polygon fill="black" stroke="black" points="201.32,-187.4 193.63,-180.11 195.09,-190.61 201.32,-187.4"/>
</g>
<!-- 8 -->
<g id="node8" class="node">
<title>8</title>
<polygon fill="none" stroke="black" points="283.83,-180 229.83,-180 229.83,-144 283.83,-144 283.83,-180"/>
<text text-anchor="middle" x="256.83" y="-157.8" font-family="Times,serif" font-size="14.00">BY</text>
</g>
<!-- 2&#45;&gt;8 -->
<g id="edge5" class="edge">
<title>2&#45;&gt;8</title>
<path fill="none" stroke="black" d="M228.12,-218.83C232.48,-210.36 238.16,-199.32 243.31,-189.29"/>
<polygon fill="black" stroke="black" points="246.57,-190.61 248.03,-180.11 240.35,-187.4 246.57,-190.61"/>
</g>
<!-- 10 -->
<g id="node10" class="node">
<title>10</title>
<polygon fill="none" stroke="black" points="374.4,-180 315.27,-180 315.27,-144 374.4,-144 374.4,-180"/>
<text text-anchor="middle" x="344.83" y="-157.8" font-family="Times,serif" font-size="14.00">SCOPE</text>
</g>
<!-- 2&#45;&gt;10 -->
<g id="edge6" class="edge">
<title>2&#45;&gt;10</title>
<path fill="none" stroke="black" d="M238.07,-223.27C255.58,-213.38 283.28,-197.75 306.08,-184.88"/>
<polygon fill="black" stroke="black" points="307.88,-187.88 314.87,-179.92 304.44,-181.79 307.88,-187.88"/>
</g>
<!-- 4 -->
<g id="node4" class="node">
<title>4</title>
<ellipse fill="none" stroke="black" cx="33.83" cy="-90" rx="33.67" ry="18"/>
<text text-anchor="middle" x="33.83" y="-85.8" font-family="Times,serif" font-size="14.00">Int: N</text>
</g>
<!-- 3&#45;&gt;4 -->
<g id="edge7" class="edge">
<title>3&#45;&gt;4</title>
<path fill="none" stroke="black" d="M92.55,-143.7C82.1,-134.31 69.08,-122.63 57.95,-112.65"/>
<polygon fill="black" stroke="black" points="60.04,-109.81 50.26,-105.74 55.36,-115.02 60.04,-109.81"/>
</g>
<!-- 5 -->
<g id="node5" class="node">
<title>5</title>
<ellipse fill="none" stroke="black" cx="112.83" cy="-90" rx="27" ry="18"/>
<text text-anchor="middle" x="112.83" y="-85.8" font-family="Times,serif" font-size="14.00">0</text>
</g>
<!-- 3&#45;&gt;5 -->
<g id="edge8" class="edge">
<title>3&#45;&gt;5</title>
<path fill="none" stroke="black" d="M112.08,-143.7C112.19,-135.98 112.32,-126.71 112.45,-118.11"/>
<polygon fill="black" stroke="black" points="115.95,-118.15 112.59,-108.1 108.95,-118.05 115.95,-118.15"/>
</g>
<!-- 7 -->
<g id="node7" class="node">
<title>7</title>
<ellipse fill="none" stroke="black" cx="184.83" cy="-90" rx="27" ry="18"/>
<text text-anchor="middle" x="184.83" y="-85.8" font-family="Times,serif" font-size="14.00">10</text>
</g>
<!-- 6&#45;&gt;7 -->
<g id="edge9" class="edge">
<title>6&#45;&gt;7</title>
<path fill="none" stroke="black" d="M184.83,-143.7C184.83,-135.98 184.83,-126.71 184.83,-118.11"/>
<polygon fill="black" stroke="black" points="188.33,-118.1 184.83,-108.1 181.33,-118.1 188.33,-118.1"/>
</g>
<!-- 9 -->
<g id="node9" class="node">
<title>9</title>
<ellipse fill="none" stroke="black" cx="256.83" cy="-90" rx="27" ry="18"/>
<text text-anchor="middle" x="256.83" y="-85.8" font-family="Times,serif" font-size="14.00">2</text>
</g>
<!-- 8&#45;&gt;9 -->
<g id="edge10" class="edge">
<title>8&#45;&gt;9</title>
<path fill="none" stroke="black" d="M256.83,-143.7C256.83,-135.98 256.83,-126.71 256.83,-118.11"/>
<polygon fill="black" stroke="black" points="260.33,-118.1 256.83,-108.1 253.33,-118.1 260.33,-118.1"/>
</g>
<!-- 12 -->
<g id="node11" class="node">
<title>12</title>
<polygon fill="none" stroke="black" points="415.99,-108 325.06,-108 301.67,-72 392.6,-72 415.99,-108"/>
<text text-anchor="middle" x="358.83" y="-85.8" font-family="Times,serif" font-size="14.00">PRINT</text>
</g>
<!-- 10&#45;&gt;12 -->
<g id="edge11" class="edge">
<title>10&#45;&gt;12</title>
<path fill="none" stroke="black" d="M348.29,-143.7C349.84,-135.98 351.69,-126.71 353.41,-118.11"/>
<polygon fill="black" stroke="black" points="356.88,-118.6 355.41,-108.1 350.02,-117.22 356.88,-118.6"/>
</g>
<!-- 11 -->
<g id="node12" class="node">
<title>11</title>
<ellipse fill="none" stroke="black" cx="358.83" cy="-18" rx="27" ry="18"/>
<text text-anchor="middle" x="358.83" y="-13.8" font-family="Times,serif" font-size="14.00">N</text>
</g>
<!-- 12&#45;&gt;11 -->
<g id="edge12" class="edge">
<title>12&#45;&gt;11</title>
<path fill="none" stroke="black" d="M358.83,-71.7C358.83,-63.98 358.83,-54.71 358.83,-46.11"/>
<polygon fill="black" stroke="black" points="362.33,-46.1 358.83,-36.1 355.33,-46.1 362.33,-46.1"/>
</g>
</g>
</svg>
