<svg width="445px" height="332px"
 viewBox="0.00 0.00 444.55 332.00" xmlns="http://www.w3.org/2000/svg" xmlns:xlink="http://www.w3.org/1999/xlink">
<g id="graph0" class="graph" transform="scale(1.0 1.0) rotate(0.0) translate(4.0 328.0)">
<title>Graph Test</title>
<polygon fill="white" stroke="transparent" points="-4,4 -4,-328 440.55,-328 440.55,4 -4,4"/>
<!-- 1 -->
<g id="node1" class="node">
<title>1</title>
<polygon fill="none" stroke="black" points="299.27,-324 213.82,-324 213.82,-288 299.27,-288 299.27,-324"/>
<text text-anchor="middle" x="256.55" y="-301.8" font-family="Times,serif" font-size="14.00">PROGRAM</text>
</g>
<!-- 2 -->
<g id="node2" class="node">
<title>2</title>
<polygon fill="none" stroke="black" points="131.55,-252 77.55,-252 77.55,-216 131.55,-216 131.55,-252"/>
<text text-anchor="middle" x="104.55" y="-229.8" font-family="Times,serif" font-size="14.00">VAR</text>
</g>
<!-- 1&#45;&gt;2 -->
<g id="edge1" class="edge">
<title>1&#45;&gt;2</title>
<path fill="none" stroke="black" d="M219.36,-287.88C195.57,-276.92 164.84,-262.77 141.16,-251.86"/>
<polygon fill="black" stroke="black" points="142.36,-248.56 131.81,-247.56 139.43,-254.92 142.36,-248.56"/>
</g>
<!-- 5 -->
<g id="node5" class="node">
<title>5</title>
<polygon fill="none" stroke="black" points="232.55,-252 178.55,-252 178.55,-216 232.55,-216 232.55,-252"/>
<text text-anchor="middle" x="205.55" y="-229.8" font-family="Times,serif" font-size="14.00">VAR</text>
</g>
<!-- 1&#45;&gt;5 -->
<g id="edge2" class="edge">
<title>1&#45;&gt;5</title>
<path fill="none" stroke="black" d="M243.94,-287.7C237.95,-279.47 230.67,-269.48 224.07,-260.42"/>
<polygon fill="black" stroke="black" points="226.72,-258.13 218.01,-252.1 221.07,-262.25 226.72,-258.13"/>
</g>
<!-- 14 -->
<g id="node13" class="node">
<title>14</title>
<polygon fill="none" stroke="black" points="364.7,-252 273.78,-252 250.39,-216 341.31,-216 364.7,-252"/>
<text text-anchor="middle" x="307.55" y="-229.8" font-family="Times,serif" font-size="14.00">PRINT</text>
</g>
<!-- 1&#45;&gt;14 -->
<g id="edge3" class="edge">
<title>1&#45;&gt;14</title>
<path fill="none" stroke="black" d="M269.15,-287.7C275.14,-279.47 282.42,-269.48 289.02,-260.42"/>
<polygon fill="black" stroke="black" points="292.02,-262.25 295.08,-252.1 286.37,-258.13 292.02,-262.25"/>
</g>
<!-- 15 -->
<g id="node15" class="node">
<title>15</title>
<polygon fill="none" stroke="black" points="436.55,-252 382.55,-252 382.55,-216 436.55,-216 436.55,-252"/>
<text text-anchor="middle" x="409.55" y="-229.8" font-family="Times,serif" font-size="14.00">HALT</text>
</g>
<!-- 1&#45;&gt;15 -->
<g id="edge4" class="edge">
<title>1&#45;&gt;15</title>
<path fill="none" stroke="black" d="M294.55,-287.97C315.41,-278.57 341.94,-266.57 373.08,-252.18"/>
<polygon fill="black" stroke="black" points="374.83,-255.23 382.44,-247.86 371.89,-248.88 374.83,-255.23"/>
</g>
<!-- 3 -->
<g id="node3" class="node">
<title>3</title>
<ellipse fill="none" stroke="black" cx="29.55" cy="-162" rx="29.59" ry="18"/>
<text text-anchor="middle" x="29.55" y="-157.8" font-family="Times,serif" font-size="14.00">Int: i</text>
</g>
<!-- 2&#45;&gt;3 -->
<g id="edge5" class="edge">
<title>2&#45;&gt;3</title>
<path fill="none" stroke="black" d="M86.01,-215.7C75.95,-206.31 63.43,-194.63 52.74,-184.65"/>
<polygon fill="black" stroke="black" points="55.03,-182 45.34,-177.74 50.26,-187.12 55.03,-182"/>
</g>
<!-- 4 -->
<g id="node4" class="node">
<title>4</title>
<ellipse fill="none" stroke="black" cx="104.55" cy="-162" rx="27" ry="18"/>
<text text-anchor="middle" x="104.55" y="-157.8" font-family="Times,serif" font-size="14.00">0</text>
</g>
<!-- 2&#45;&gt;4 -->
<g id="edge6" class="edge">
<title>2&#45;&gt;4</title>
<path fill="none" stroke="black" d="M104.55,-215.7C104.55,-207.98 104.55,-198.71 104.55,-190.11"/>
<polygon fill="black" stroke="black" points="108.05,-190.1 104.55,-180.1 101.05,-190.1 108.05,-190.1"/>
</g>
<!-- 6 -->
<g id="node6" class="node">
<title>6</title>
<ellipse fill="none" stroke="black" cx="181.55" cy="-162" rx="31.88" ry="18"/>
<text text-anchor="middle" x="181.55" y="-157.8" font-family="Times,serif" font-size="14.00">Int: x</text>
</g>
<!-- 5&#45;&gt;6 -->
<g id="edge7" class="edge">
<title>5&#45;&gt;6</title>
<path fill="none" stroke="black" d="M199.61,-215.7C196.94,-207.9 193.72,-198.51 190.74,-189.83"/>
<polygon fill="black" stroke="black" points="193.96,-188.43 187.41,-180.1 187.34,-190.7 193.96,-188.43"/>
</g>
<!-- 7 -->
<g id="node7" class="node">
<title>7</title>
<polygon fill="none" stroke="black" points="258.55,-180 230.55,-162 258.55,-144 286.54,-162 258.55,-180"/>
<text text-anchor="middle" x="258.55" y="-157.8" font-family="Times,serif" font-size="14.00">IF</text>
</g>
<!-- 5&#45;&gt;7 -->
<g id="edge8" class="edge">
<title>5&#45;&gt;7</title>
<path fill="none" stroke="black" d="M218.65,-215.7C226.21,-205.7 235.76,-193.09 243.62,-182.72"/>
<polygon fill="black" stroke="black" points="246.49,-184.72 249.74,-174.63 240.91,-180.49 246.49,-184.72"/>
</g>
<!-- 9 -->
<g id="node8" class="node">
<title>9</title>
<polygon fill="none" stroke="black" points="213.55,-108 159.55,-108 159.55,-72 213.55,-72 213.55,-108"/>
<text text-anchor="middle" x="186.55" y="-85.8" font-family="Times,serif" font-size="14.00">==</text>
</g>
<!-- 7&#45;&gt;9 -->
<g id="edge9" class="edge">
<title>7&#45;&gt;9</title>
<path fill="none" stroke="black" d="M247.92,-150.67C238.4,-141.41 224.05,-127.47 211.63,-115.38"/>
<polygon fill="black" stroke="black" points="213.81,-112.62 204.2,-108.16 208.93,-117.64 213.81,-112.62"/>
</g>
<!-- 11 -->
<g id="node11" class="node">
<title>11</title>
<ellipse fill="none" stroke="black" cx="258.55" cy="-90" rx="27" ry="18"/>
<text text-anchor="middle" x="258.55" y="-85.8" font-family="Times,serif" font-size="14.00">10</text>
</g>
<!-- 7&#45;&gt;11 -->
<g id="edge10" class="edge">
<title>7&#45;&gt;11</title>
<path fill="none" stroke="black" d="M258.55,-143.7C258.55,-135.98 258.55,-126.71 258.55,-118.11"/>
<polygon fill="black" stroke="black" points="262.05,-118.1 258.55,-108.1 255.05,-118.1 262.05,-118.1"/>
</g>
<!-- 12 -->
<g id="node12" class="node">
<title>12</title>
<ellipse fill="none" stroke="black" cx="330.55" cy="-90" rx="27" ry="18"/>
<text text-anchor="middle" x="330.55" y="-85.8" font-family="Times,serif" font-size="14.00">20</text>
</g>
<!-- 7&#45;&gt;12 -->
<g id="edge11" class="edge">
<title>7&#45;&gt;12</title>
<path fill="none" stroke="black" d="M269.17,-150.67C279.5,-140.63 295.51,-125.06 308.59,-112.35"/>
<polygon fill="black" stroke="black" points="311.15,-114.74 315.88,-105.26 306.27,-109.72 311.15,-114.74"/>
</g>
<!-- 8 -->
<g id="node9" class="node">
<title>8</title>
<ellipse fill="none" stroke="black" cx="150.55" cy="-18" rx="27" ry="18"/>
<text text-anchor="middle" x="150.55" y="-13.8" font-family="Times,serif" font-size="14.00">i</text>
</g>
<!-- 9&#45;&gt;8 -->
<g id="edge12" class="edge">
<title>9&#45;&gt;8</title>
<path fill="none" stroke="black" d="M177.65,-71.7C173.38,-63.4 168.19,-53.31 163.5,-44.19"/>
<polygon fill="black" stroke="black" points="166.53,-42.44 158.85,-35.14 160.31,-45.64 166.53,-42.44"/>
</g>
<!-- 10 -->
<g id="node10" class="node">
<title>10</title>
<ellipse fill="none" stroke="black" cx="222.55" cy="-18" rx="27" ry="18"/>
<text text-anchor="middle" x="222.55" y="-13.8" font-family="Times,serif" font-size="14.00">0</text>
</g>
<!-- 9&#45;&gt;10 -->
<g id="edge13" class="edge">
<title>9&#45;&gt;10</title>
<path fill="none" stroke="black" d="M195.44,-71.7C199.71,-63.4 204.9,-53.31 209.59,-44.19"/>
<polygon fill="black" stroke="black" points="212.78,-45.64 214.24,-35.14 206.56,-42.44 212.78,-45.64"/>
</g>
<!-- 13 -->
<g id="node14" class="node">
<title>13</title>
<ellipse fill="none" stroke="black" cx="331.55" cy="-162" rx="27" ry="18"/>
<text text-anchor="middle" x="331.55" y="-157.8" font-family="Times,serif" font-size="14.00">x</text>
</g>
<!-- 14&#45;&gt;13 -->
<g id="edge14" class="edge">
<title>14&#45;&gt;13</title>
<path fill="none" stroke="black" d="M313.48,-215.7C316.22,-207.7 319.54,-198.02 322.58,-189.15"/>
<polygon fill="black" stroke="black" points="325.91,-190.22 325.85,-179.62 319.29,-187.95 325.91,-190.22"/>
</g>
</g>
</svg>
