<svg width="333px" height="404px"
 viewBox="0.00 0.00 332.69 404.00" xmlns="http://www.w3.org/2000/svg" xmlns:xlink="http://www.w3.org/1999/xlink">
<g id="graph0" class="graph" transform="scale(1.0 1.0) rotate(0.0) translate(4.0 400.0)">
<title>Graph Test</title>
<polygon fill="white" stroke="transparent" points="-4,4 -4,-400 328.69,-400 328.69,4 -4,4"/>
<!-- 1 -->
<g id="node1" class="node">
<title>1</title>
<polygon fill="none" stroke="black" points="238.41,-396 152.97,-396 152.97,-360 238.41,-360 238.41,-396"/>
<text text-anchor="middle" x="195.69" y="-373.8" font-family="Times,serif" font-size="14.00">PROGRAM</text>
</g>
<!-- 2 -->
<g id="node2" class="node">
<title>2</title>
<polygon fill="none" stroke="black" points="120.69,-324 66.69,-324 66.69,-288 120.69,-288 120.69,-324"/>
<text text-anchor="middle" x="93.69" y="-301.8" font-family="Times,serif" font-size="14.00">VAR</text>
</g>
<!-- 1&#45;&gt;2 -->
<g id="edge1" class="edge">
<title>1&#45;&gt;2</title>
<path fill="none" stroke="black" d="M170.74,-359.88C157.65,-350.89 141.43,-339.76 127.25,-330.03"/>
<polygon fill="black" stroke="black" points="128.96,-326.96 118.74,-324.19 125,-332.73 128.96,-326.96"/>
</g>
<!-- 12 -->
<g id="node5" class="node">
<title>12</title>
<polygon fill="none" stroke="black" points="252.85,-324 161.92,-324 138.53,-288 229.46,-288 252.85,-324"/>
<text text-anchor="middle" x="195.69" y="-301.8" font-family="Times,serif" font-size="14.00">PRINT</text>
</g>
<!-- 1&#45;&gt;12 -->
<g id="edge2" class="edge">
<title>1&#45;&gt;12</title>
<path fill="none" stroke="black" d="M195.69,-359.7C195.69,-351.98 195.69,-342.71 195.69,-334.11"/>
<polygon fill="black" stroke="black" points="199.19,-334.1 195.69,-324.1 192.19,-334.1 199.19,-334.1"/>
</g>
<!-- 13 -->
<g id="node13" class="node">
<title>13</title>
<polygon fill="none" stroke="black" points="324.69,-324 270.69,-324 270.69,-288 324.69,-288 324.69,-324"/>
<text text-anchor="middle" x="297.69" y="-301.8" font-family="Times,serif" font-size="14.00">HALT</text>
</g>
<!-- 1&#45;&gt;13 -->
<g id="edge3" class="edge">
<title>1&#45;&gt;13</title>
<path fill="none" stroke="black" d="M220.64,-359.88C233.73,-350.89 249.95,-339.76 264.13,-330.03"/>
<polygon fill="black" stroke="black" points="266.38,-332.73 272.64,-324.19 262.42,-326.96 266.38,-332.73"/>
</g>
<!-- 3 -->
<g id="node3" class="node">
<title>3</title>
<ellipse fill="none" stroke="black" cx="31.69" cy="-234" rx="31.88" ry="18"/>
<text text-anchor="middle" x="31.69" y="-229.8" font-family="Times,serif" font-size="14.00">Int: n</text>
</g>
<!-- 2&#45;&gt;3 -->
<g id="edge4" class="edge">
<title>2&#45;&gt;3</title>
<path fill="none" stroke="black" d="M78.36,-287.7C70.52,-278.84 60.86,-267.93 52.36,-258.34"/>
<polygon fill="black" stroke="black" points="54.82,-255.84 45.57,-250.67 49.58,-260.48 54.82,-255.84"/>
</g>
<!-- 4 -->
<g id="node4" class="node">
<title>4</title>
<ellipse fill="none" stroke="black" cx="108.69" cy="-234" rx="27" ry="18"/>
<text text-anchor="middle" x="108.69" y="-229.8" font-family="Times,serif" font-size="14.00">5</text>
</g>
<!-- 2&#45;&gt;4 -->
<g id="edge5" class="edge">
<title>2&#45;&gt;4</title>
<path fill="none" stroke="black" d="M97.4,-287.7C99.05,-279.98 101.04,-270.71 102.88,-262.11"/>
<polygon fill="black" stroke="black" points="106.35,-262.62 105.02,-252.1 99.51,-261.15 106.35,-262.62"/>
</g>
<!-- 10 -->
<g id="node6" class="node">
<title>10</title>
<polygon fill="none" stroke="black" points="222.69,-252 168.69,-252 168.69,-216 222.69,-216 222.69,-252"/>
<text text-anchor="middle" x="195.69" y="-229.8" font-family="Times,serif" font-size="14.00">/</text>
</g>
<!-- 12&#45;&gt;10 -->
<g id="edge6" class="edge">
<title>12&#45;&gt;10</title>
<path fill="none" stroke="black" d="M195.69,-287.7C195.69,-279.98 195.69,-270.71 195.69,-262.11"/>
<polygon fill="black" stroke="black" points="199.19,-262.1 195.69,-252.1 192.19,-262.1 199.19,-262.1"/>
</g>
<!-- 6 -->
<g id="node7" class="node">
<title>6</title>
<polygon fill="none" stroke="black" points="186.69,-180 132.69,-180 132.69,-144 186.69,-144 186.69,-180"/>
<text text-anchor="middle" x="159.69" y="-157.8" font-family="Times,serif" font-size="14.00">*</text>
</g>
<!-- 10&#45;&gt;6 -->
<g id="edge7" class="edge">
<title>10&#45;&gt;6</title>
<path fill="none" stroke="black" d="M186.79,-215.7C182.69,-207.73 177.74,-198.1 173.2,-189.26"/>
<polygon fill="black" stroke="black" points="176.17,-187.4 168.49,-180.1 169.95,-190.6 176.17,-187.4"/>
</g>
<!-- 11 -->
<g id="node12" class="node">
<title>11</title>
<ellipse fill="none" stroke="black" cx="231.69" cy="-162" rx="27" ry="18"/>
<text text-anchor="middle" x="231.69" y="-157.8" font-family="Times,serif" font-size="14.00">2</text>
</g>
<!-- 10&#45;&gt;11 -->
<g id="edge8" class="edge">
<title>10&#45;&gt;11</title>
<path fill="none" stroke="black" d="M204.59,-215.7C208.85,-207.4 214.04,-197.31 218.74,-188.19"/>
<polygon fill="black" stroke="black" points="221.93,-189.64 223.39,-179.14 215.7,-186.44 221.93,-189.64"/>
</g>
<!-- 5 -->
<g id="node8" class="node">
<title>5</title>
<ellipse fill="none" stroke="black" cx="123.69" cy="-90" rx="27" ry="18"/>
<text text-anchor="middle" x="123.69" y="-85.8" font-family="Times,serif" font-size="14.00">n</text>
</g>
<!-- 6&#45;&gt;5 -->
<g id="edge9" class="edge">
<title>6&#45;&gt;5</title>
<path fill="none" stroke="black" d="M150.79,-143.7C146.53,-135.4 141.34,-125.31 136.64,-116.19"/>
<polygon fill="black" stroke="black" points="139.68,-114.44 131.99,-107.14 133.45,-117.64 139.68,-114.44"/>
</g>
<!-- 8 -->
<g id="node9" class="node">
<title>8</title>
<polygon fill="none" stroke="black" points="222.69,-108 168.69,-108 168.69,-72 222.69,-72 222.69,-108"/>
<text text-anchor="middle" x="195.69" y="-85.8" font-family="Times,serif" font-size="14.00">+</text>
</g>
<!-- 6&#45;&gt;8 -->
<g id="edge10" class="edge">
<title>6&#45;&gt;8</title>
<path fill="none" stroke="black" d="M168.59,-143.7C172.69,-135.73 177.64,-126.1 182.18,-117.26"/>
<polygon fill="black" stroke="black" points="185.43,-118.6 186.89,-108.1 179.21,-115.4 185.43,-118.6"/>
</g>
<!-- 7 -->
<g id="node10" class="node">
<title>7</title>
<ellipse fill="none" stroke="black" cx="159.69" cy="-18" rx="27" ry="18"/>
<text text-anchor="middle" x="159.69" y="-13.8" font-family="Times,serif" font-size="14.00">n</text>
</g>
<!-- 8&#45;&gt;7 -->
<g id="edge11" class="edge">
<title>8&#45;&gt;7</title>
<path fill="none" stroke="black" d="M186.79,-71.7C182.53,-63.4 177.34,-53.31 172.64,-44.19"/>
<polygon fill="black" stroke="black" points="175.68,-42.44 167.99,-35.14 169.45,-45.64 175.68,-42.44"/>
</g>
<!-- 9 -->
<g id="node11" class="node">
<title>9</title>
<ellipse fill="none" stroke="black" cx="231.69" cy="-18" rx="27" ry="18"/>
<text text-anchor="middle" x="231.69" y="-13.8" font-family="Times,serif" font-size="14.00">1</text>
</g>
<!-- 8&#45;&gt;9 -->
<g id="edge12" class="edge">
<title>8&#45;&gt;9</title>
<path fill="none" stroke="black" d="M204.59,-71.7C208.85,-63.4 214.04,-53.31 218.74,-44.19"/>
<polygon fill="black" stroke="black" points="221.93,-45.64 223.39,-35.14 215.7,-42.44 221.93,-45.64"/>
</g>
</g>
</svg>
