<svg width="963px" height="332px"
 viewBox="0.00 0.00 962.55 332.00" xmlns="http://www.w3.org/2000/svg" xmlns:xlink="http://www.w3.org/1999/xlink">
<g id="graph0" class="graph" transform="scale(1.0 1.0) rotate(0.0) translate(4.0 328.0)">
<title>Graph Test</title>
<polygon fill="white" stroke="transparent" points="-4,4 -4,-328 958.55,-328 958.55,4 -4,4"/>
<!-- PROGRAM_ROOT -->
<g id="node1" class="node">
<title>PROGRAM_ROOT</title>
<polygon fill="none" stroke="black" points="614.27,-324 528.82,-324 528.82,-288 614.27,-288 614.27,-324"/>
<text text-anchor="middle" x="571.55" y="-301.8" font-family="Times,serif" font-size="14.00">PROGRAM</text>
</g>
<!-- 0 -->
<g id="node2" class="node">
<title>0</title>
<polygon fill="none" stroke="black" points="131.55,-252 77.55,-252 77.55,-216 131.55,-216 131.55,-252"/>
<text text-anchor="middle" x="104.55" y="-229.8" font-family="Times,serif" font-size="14.00">VAR</text>
</g>
<!-- PROGRAM_ROOT&#45;&gt;0 -->
<g id="edge1" class="edge">
<title>PROGRAM_ROOT&#45;&gt;0</title>
<path fill="none" stroke="black" d="M528.86,-298.6C438.08,-284.99 227.15,-253.38 141.6,-240.55"/>
<polygon fill="black" stroke="black" points="141.97,-237.07 131.56,-239.05 140.93,-243.99 141.97,-237.07"/>
</g>
<!-- 1 -->
<g id="node5" class="node">
<title>1</title>
<polygon fill="none" stroke="black" points="285.55,-252 231.55,-252 231.55,-216 285.55,-216 285.55,-252"/>
<text text-anchor="middle" x="258.55" y="-229.8" font-family="Times,serif" font-size="14.00">VAR</text>
</g>
<!-- PROGRAM_ROOT&#45;&gt;1 -->
<g id="edge2" class="edge">
<title>PROGRAM_ROOT&#45;&gt;1</title>
<path fill="none" stroke="black" d="M528.5,-299.34C474.32,-291.6 378.77,-275.88 299.55,-252 298.12,-251.57 296.67,-251.11 295.21,-250.62"/>
<polygon fill="black" stroke="black" points="296.21,-247.26 285.61,-247.12 293.81,-253.83 296.21,-247.26"/>
</g>
<!-- 2 -->
<g id="node8" class="node">
<title>2</title>
<polygon fill="none" stroke="black" points="466.55,-252 412.99,-234 466.55,-216 520.1,-234 466.55,-252"/>
<text text-anchor="middle" x="466.55" y="-229.8" font-family="Times,serif" font-size="14.00">GOTO</text>
</g>
<!-- PROGRAM_ROOT&#45;&gt;2 -->
<g id="edge3" class="edge">
<title>PROGRAM_ROOT&#45;&gt;2</title>
<path fill="none" stroke="black" d="M545.86,-287.88C529.57,-277.02 508.57,-263.02 492.27,-252.15"/>
<polygon fill="black" stroke="black" points="494.02,-249.11 483.76,-246.48 490.14,-254.94 494.02,-249.11"/>
</g>
<!-- label_5 -->
<g id="node13" class="node">
<title>label_5</title>
<polygon fill="none" stroke="black" points="359.26,-108 301.83,-108 301.83,-72 359.26,-72 359.26,-108"/>
<text text-anchor="middle" x="330.55" y="-85.8" font-family="Times,serif" font-size="14.00">label_2</text>
</g>
<!-- PROGRAM_ROOT&#45;&gt;label_5 -->
<g id="edge6" class="edge">
<title>PROGRAM_ROOT&#45;&gt;label_5</title>
<path fill="none" stroke="black" d="M528.76,-297.5C493.29,-289.93 442.55,-275.86 403.55,-252 365.21,-228.55 350.06,-221.39 332.55,-180 324.29,-160.49 324.3,-136.35 326.09,-118.14"/>
<polygon fill="black" stroke="black" points="329.57,-118.53 327.31,-108.18 322.62,-117.68 329.57,-118.53"/>
</g>
<!-- 3 -->
<g id="node15" class="node">
<title>3</title>
<polygon fill="none" stroke="black" points="599.59,-108 533.5,-108 533.5,-72 599.59,-72 599.59,-108"/>
<text text-anchor="middle" x="566.55" y="-85.8" font-family="Times,serif" font-size="14.00">ASSIGN</text>
</g>
<!-- PROGRAM_ROOT&#45;&gt;3 -->
<g id="edge4" class="edge">
<title>PROGRAM_ROOT&#45;&gt;3</title>
<path fill="none" stroke="black" d="M571.14,-287.85C570.28,-250.83 568.23,-163.18 567.18,-118.39"/>
<polygon fill="black" stroke="black" points="570.68,-118.15 566.95,-108.23 563.68,-118.31 570.68,-118.15"/>
</g>
<!-- 4 -->
<g id="node18" class="node">
<title>4</title>
<polygon fill="none" stroke="black" points="691.92,-252 637.17,-252 637.17,-216 691.92,-216 691.92,-252"/>
<text text-anchor="middle" x="664.55" y="-229.8" font-family="Times,serif" font-size="14.00">GOTO</text>
</g>
<!-- PROGRAM_ROOT&#45;&gt;4 -->
<g id="edge5" class="edge">
<title>PROGRAM_ROOT&#45;&gt;4</title>
<path fill="none" stroke="black" d="M594.53,-287.7C606.36,-278.8 620.94,-267.82 633.72,-258.2"/>
<polygon fill="black" stroke="black" points="635.94,-260.91 641.82,-252.1 631.73,-255.32 635.94,-260.91"/>
</g>
<!-- label_7 -->
<g id="node19" class="node">
<title>label_7</title>
<polygon fill="none" stroke="black" points="657.26,-180 599.83,-180 599.83,-144 657.26,-144 657.26,-180"/>
<text text-anchor="middle" x="628.55" y="-157.8" font-family="Times,serif" font-size="14.00">label_1</text>
</g>
<!-- PROGRAM_ROOT&#45;&gt;label_7 -->
<g id="edge8" class="edge">
<title>PROGRAM_ROOT&#45;&gt;label_7</title>
<path fill="none" stroke="black" d="M578.42,-287.87C588.22,-263.46 606.3,-218.43 617.85,-189.64"/>
<polygon fill="black" stroke="black" points="621.17,-190.77 621.65,-180.19 614.67,-188.17 621.17,-190.77"/>
</g>
<!-- 6 -->
<g id="node20" class="node">
<title>6</title>
<polygon fill="none" stroke="black" points="776.59,-252 710.5,-252 710.5,-216 776.59,-216 776.59,-252"/>
<text text-anchor="middle" x="743.55" y="-229.8" font-family="Times,serif" font-size="14.00">ASSIGN</text>
</g>
<!-- PROGRAM_ROOT&#45;&gt;6 -->
<g id="edge7" class="edge">
<title>PROGRAM_ROOT&#45;&gt;6</title>
<path fill="none" stroke="black" d="M613.62,-287.88C640.11,-277.1 674.19,-263.23 700.8,-252.4"/>
<polygon fill="black" stroke="black" points="702.29,-255.57 710.24,-248.56 699.65,-249.08 702.29,-255.57"/>
</g>
<!-- 8 -->
<g id="node23" class="node">
<title>8</title>
<polygon fill="none" stroke="black" points="912.7,-252 821.78,-252 798.39,-216 889.31,-216 912.7,-252"/>
<text text-anchor="middle" x="855.55" y="-229.8" font-family="Times,serif" font-size="14.00">PRINT</text>
</g>
<!-- PROGRAM_ROOT&#45;&gt;8 -->
<g id="edge9" class="edge">
<title>PROGRAM_ROOT&#45;&gt;8</title>
<path fill="none" stroke="black" d="M614.37,-294.44C666.01,-281.72 752.6,-260.37 806.77,-247.02"/>
<polygon fill="black" stroke="black" points="807.62,-250.42 816.49,-244.63 805.94,-243.62 807.62,-250.42"/>
</g>
<!-- id_0 -->
<g id="node3" class="node">
<title>id_0</title>
<ellipse fill="none" stroke="black" cx="29.55" cy="-162" rx="29.59" ry="18"/>
<text text-anchor="middle" x="29.55" y="-157.8" font-family="Times,serif" font-size="14.00">Int: i</text>
</g>
<!-- 0&#45;&gt;id_0 -->
<g id="edge10" class="edge">
<title>0&#45;&gt;id_0</title>
<path fill="none" stroke="black" d="M86.01,-215.7C75.95,-206.31 63.43,-194.63 52.74,-184.65"/>
<polygon fill="black" stroke="black" points="55.03,-182 45.34,-177.74 50.26,-187.12 55.03,-182"/>
</g>
<!-- lit_0 -->
<g id="node4" class="node">
<title>lit_0</title>
<ellipse fill="none" stroke="black" cx="104.55" cy="-162" rx="27" ry="18"/>
<text text-anchor="middle" x="104.55" y="-157.8" font-family="Times,serif" font-size="14.00">0</text>
</g>
<!-- 0&#45;&gt;lit_0 -->
<g id="edge11" class="edge">
<title>0&#45;&gt;lit_0</title>
<path fill="none" stroke="black" d="M104.55,-215.7C104.55,-207.98 104.55,-198.71 104.55,-190.11"/>
<polygon fill="black" stroke="black" points="108.05,-190.1 104.55,-180.1 101.05,-190.1 108.05,-190.1"/>
</g>
<!-- id_1 -->
<g id="node6" class="node">
<title>id_1</title>
<ellipse fill="none" stroke="black" cx="181.55" cy="-162" rx="31.88" ry="18"/>
<text text-anchor="middle" x="181.55" y="-157.8" font-family="Times,serif" font-size="14.00">Int: x</text>
</g>
<!-- 1&#45;&gt;id_1 -->
<g id="edge12" class="edge">
<title>1&#45;&gt;id_1</title>
<path fill="none" stroke="black" d="M239.51,-215.7C229.19,-206.31 216.34,-194.63 205.36,-184.65"/>
<polygon fill="black" stroke="black" points="207.51,-181.88 197.76,-177.74 202.8,-187.05 207.51,-181.88"/>
</g>
<!-- lit_1 -->
<g id="node7" class="node">
<title>lit_1</title>
<ellipse fill="none" stroke="black" cx="258.55" cy="-162" rx="27" ry="18"/>
<text text-anchor="middle" x="258.55" y="-157.8" font-family="Times,serif" font-size="14.00">0</text>
</g>
<!-- 1&#45;&gt;lit_1 -->
<g id="edge13" class="edge">
<title>1&#45;&gt;lit_1</title>
<path fill="none" stroke="black" d="M258.55,-215.7C258.55,-207.98 258.55,-198.71 258.55,-190.11"/>
<polygon fill="black" stroke="black" points="262.05,-190.1 258.55,-180.1 255.05,-190.1 262.05,-190.1"/>
</g>
<!-- binop_2 -->
<g id="node9" class="node">
<title>binop_2</title>
<polygon fill="none" stroke="black" points="471.55,-180 417.55,-180 417.55,-144 471.55,-144 471.55,-180"/>
<text text-anchor="middle" x="444.55" y="-157.8" font-family="Times,serif" font-size="14.00">==</text>
</g>
<!-- 2&#45;&gt;binop_2 -->
<g id="edge14" class="edge">
<title>2&#45;&gt;binop_2</title>
<path fill="none" stroke="black" d="M461.66,-217.46C459.13,-209.42 455.97,-199.36 453.06,-190.09"/>
<polygon fill="black" stroke="black" points="456.37,-188.95 450.03,-180.46 449.69,-191.05 456.37,-188.95"/>
</g>
<!-- to_label_2 -->
<g id="node12" class="node">
<title>to_label_2</title>
<ellipse fill="none" stroke="black" cx="370.55" cy="-162" rx="29.03" ry="18"/>
<text text-anchor="middle" x="370.55" y="-157.8" font-family="Times,serif" font-size="14.00">false</text>
</g>
<!-- 2&#45;&gt;to_label_2 -->
<g id="edge15" class="edge">
<title>2&#45;&gt;to_label_2</title>
<path fill="none" stroke="black" d="M450.26,-221.13C435.77,-210.56 414.31,-194.91 397.31,-182.51"/>
<polygon fill="black" stroke="black" points="399.02,-179.43 388.88,-176.37 394.9,-185.09 399.02,-179.43"/>
</g>
<!-- to_next_instr_2 -->
<g id="node14" class="node">
<title>to_next_instr_2</title>
<ellipse fill="none" stroke="black" cx="516.55" cy="-162" rx="27" ry="18"/>
<text text-anchor="middle" x="516.55" y="-157.8" font-family="Times,serif" font-size="14.00">true</text>
</g>
<!-- 2&#45;&gt;to_next_instr_2 -->
<g id="edge16" class="edge">
<title>2&#45;&gt;to_next_instr_2</title>
<path fill="none" stroke="black" d="M476.42,-219.17C482.98,-209.99 491.76,-197.7 499.44,-186.95"/>
<polygon fill="black" stroke="black" points="502.33,-188.93 505.29,-178.76 496.63,-184.86 502.33,-188.93"/>
</g>
<!-- var_2 -->
<g id="node10" class="node">
<title>var_2</title>
<ellipse fill="none" stroke="black" cx="412.55" cy="-90" rx="27" ry="18"/>
<text text-anchor="middle" x="412.55" y="-85.8" font-family="Times,serif" font-size="14.00">i</text>
</g>
<!-- binop_2&#45;&gt;var_2 -->
<g id="edge17" class="edge">
<title>binop_2&#45;&gt;var_2</title>
<path fill="none" stroke="black" d="M436.63,-143.7C432.94,-135.61 428.46,-125.81 424.37,-116.87"/>
<polygon fill="black" stroke="black" points="427.48,-115.26 420.14,-107.62 421.12,-118.17 427.48,-115.26"/>
</g>
<!-- lit_2 -->
<g id="node11" class="node">
<title>lit_2</title>
<ellipse fill="none" stroke="black" cx="484.55" cy="-90" rx="27" ry="18"/>
<text text-anchor="middle" x="484.55" y="-85.8" font-family="Times,serif" font-size="14.00">0</text>
</g>
<!-- binop_2&#45;&gt;lit_2 -->
<g id="edge18" class="edge">
<title>binop_2&#45;&gt;lit_2</title>
<path fill="none" stroke="black" d="M454.43,-143.7C459.22,-135.32 465.06,-125.1 470.32,-115.9"/>
<polygon fill="black" stroke="black" points="473.4,-117.56 475.32,-107.14 467.32,-114.09 473.4,-117.56"/>
</g>
<!-- to_label_2&#45;&gt;label_5 -->
<g id="edge19" class="edge">
<title>to_label_2&#45;&gt;label_5</title>
<path fill="none" stroke="black" d="M361.27,-144.76C356.56,-136.53 350.73,-126.32 345.41,-117.02"/>
<polygon fill="black" stroke="black" points="348.33,-115.07 340.33,-108.12 342.25,-118.54 348.33,-115.07"/>
</g>
<!-- to_next_instr_2&#45;&gt;3 -->
<g id="edge20" class="edge">
<title>to_next_instr_2&#45;&gt;3</title>
<path fill="none" stroke="black" d="M527.64,-145.46C533.69,-136.99 541.34,-126.29 548.25,-116.61"/>
<polygon fill="black" stroke="black" points="551.11,-118.63 554.07,-108.46 545.41,-114.56 551.11,-118.63"/>
</g>
<!-- id_3 -->
<g id="node16" class="node">
<title>id_3</title>
<ellipse fill="none" stroke="black" cx="527.55" cy="-18" rx="31.88" ry="18"/>
<text text-anchor="middle" x="527.55" y="-13.8" font-family="Times,serif" font-size="14.00">Int: x</text>
</g>
<!-- 3&#45;&gt;id_3 -->
<g id="edge21" class="edge">
<title>3&#45;&gt;id_3</title>
<path fill="none" stroke="black" d="M556.9,-71.7C552.35,-63.52 546.82,-53.6 541.8,-44.58"/>
<polygon fill="black" stroke="black" points="544.73,-42.65 536.81,-35.62 538.62,-46.06 544.73,-42.65"/>
</g>
<!-- lit_3 -->
<g id="node17" class="node">
<title>lit_3</title>
<ellipse fill="none" stroke="black" cx="604.55" cy="-18" rx="27" ry="18"/>
<text text-anchor="middle" x="604.55" y="-13.8" font-family="Times,serif" font-size="14.00">10</text>
</g>
<!-- 3&#45;&gt;lit_3 -->
<g id="edge22" class="edge">
<title>3&#45;&gt;lit_3</title>
<path fill="none" stroke="black" d="M575.94,-71.7C580.44,-63.4 585.92,-53.31 590.87,-44.19"/>
<polygon fill="black" stroke="black" points="594.09,-45.6 595.78,-35.14 587.93,-42.26 594.09,-45.6"/>
</g>
<!-- 4&#45;&gt;label_7 -->
<g id="edge23" class="edge">
<title>4&#45;&gt;label_7</title>
<path fill="none" stroke="black" d="M655.65,-215.7C651.55,-207.73 646.6,-198.1 642.05,-189.26"/>
<polygon fill="black" stroke="black" points="645.03,-187.4 637.34,-180.1 638.8,-190.6 645.03,-187.4"/>
</g>
<!-- id_6 -->
<g id="node21" class="node">
<title>id_6</title>
<ellipse fill="none" stroke="black" cx="706.55" cy="-162" rx="31.88" ry="18"/>
<text text-anchor="middle" x="706.55" y="-157.8" font-family="Times,serif" font-size="14.00">Int: x</text>
</g>
<!-- 6&#45;&gt;id_6 -->
<g id="edge24" class="edge">
<title>6&#45;&gt;id_6</title>
<path fill="none" stroke="black" d="M734.4,-215.7C730.08,-207.52 724.84,-197.6 720.07,-188.58"/>
<polygon fill="black" stroke="black" points="723.1,-186.83 715.33,-179.62 716.91,-190.1 723.1,-186.83"/>
</g>
<!-- lit_6 -->
<g id="node22" class="node">
<title>lit_6</title>
<ellipse fill="none" stroke="black" cx="783.55" cy="-162" rx="27" ry="18"/>
<text text-anchor="middle" x="783.55" y="-157.8" font-family="Times,serif" font-size="14.00">20</text>
</g>
<!-- 6&#45;&gt;lit_6 -->
<g id="edge25" class="edge">
<title>6&#45;&gt;lit_6</title>
<path fill="none" stroke="black" d="M753.43,-215.7C758.22,-207.32 764.06,-197.1 769.32,-187.9"/>
<polygon fill="black" stroke="black" points="772.4,-189.56 774.32,-179.14 766.32,-186.09 772.4,-189.56"/>
</g>
<!-- var_8 -->
<g id="node24" class="node">
<title>var_8</title>
<ellipse fill="none" stroke="black" cx="855.55" cy="-162" rx="27" ry="18"/>
<text text-anchor="middle" x="855.55" y="-157.8" font-family="Times,serif" font-size="14.00">x</text>
</g>
<!-- 8&#45;&gt;var_8 -->
<g id="edge26" class="edge">
<title>8&#45;&gt;var_8</title>
<path fill="none" stroke="black" d="M855.55,-215.7C855.55,-207.98 855.55,-198.71 855.55,-190.11"/>
<polygon fill="black" stroke="black" points="859.05,-190.1 855.55,-180.1 852.05,-190.1 859.05,-190.1"/>
</g>
<!-- END -->
<g id="node25" class="node">
<title>END</title>
<polygon fill="none" stroke="black" points="954.55,-180 900.55,-180 900.55,-144 954.55,-144 954.55,-180"/>
<text text-anchor="middle" x="927.55" y="-157.8" font-family="Times,serif" font-size="14.00">HALT</text>
</g>
<!-- 8&#45;&gt;END -->
<g id="edge27" class="edge">
<title>8&#45;&gt;END</title>
<path fill="none" stroke="black" d="M873.34,-215.7C882.15,-207.14 892.93,-196.66 902.55,-187.3"/>
<polygon fill="black" stroke="black" points="905.22,-189.58 909.95,-180.1 900.34,-184.57 905.22,-189.58"/>
</g>
</g>
</svg>
