<svg width="406px" height="980px"
 viewBox="0.00 0.00 406.46 980.00" xmlns="http://www.w3.org/2000/svg" xmlns:xlink="http://www.w3.org/1999/xlink">
<g id="graph0" class="graph" transform="scale(1.0 1.0) rotate(0.0) translate(4.0 976.0)">
<title>Graph Test</title>
<polygon fill="white" stroke="transparent" points="-4,4 -4,-976 402.46,-976 402.46,4 -4,4"/>
<!-- 0 -->
<g id="node1" class="node">
<title>0</title>
<polygon fill="none" stroke="black" points="152,-972 98,-972 98,-936 152,-936 152,-972"/>
<text text-anchor="middle" x="125" y="-949.8" font-family="Times,serif" font-size="14.00">VAR</text>
</g>
<!-- id_0 -->
<g id="node2" class="node">
<title>id_0</title>
<ellipse fill="none" stroke="black" cx="46" cy="-882" rx="33.67" ry="18"/>
<text text-anchor="middle" x="46" y="-877.8" font-family="Times,serif" font-size="14.00">Int: N</text>
</g>
<!-- 0&#45;&gt;id_0 -->
<g id="edge1" class="edge">
<title>0&#45;&gt;id_0</title>
<path fill="none" stroke="black" d="M105.47,-935.7C94.88,-926.31 81.7,-914.63 70.43,-904.65"/>
<polygon fill="black" stroke="black" points="72.44,-901.75 62.63,-897.74 67.8,-906.99 72.44,-901.75"/>
</g>
<!-- lit_0 -->
<g id="node3" class="node">
<title>lit_0</title>
<ellipse fill="none" stroke="black" cx="125" cy="-882" rx="27" ry="18"/>
<text text-anchor="middle" x="125" y="-877.8" font-family="Times,serif" font-size="14.00">0</text>
</g>
<!-- 0&#45;&gt;lit_0 -->
<g id="edge2" class="edge">
<title>0&#45;&gt;lit_0</title>
<path fill="none" stroke="black" d="M125,-935.7C125,-927.98 125,-918.71 125,-910.11"/>
<polygon fill="black" stroke="black" points="128.5,-910.1 125,-900.1 121.5,-910.1 128.5,-910.1"/>
</g>
<!-- next_instruction_1 -->
<g id="node4" class="node">
<title>next_instruction_1</title>
<ellipse fill="none" stroke="black" cx="207" cy="-882" rx="36.56" ry="18"/>
<text text-anchor="middle" x="207" y="-877.8" font-family="Times,serif" font-size="14.00">NEXT</text>
</g>
<!-- 0&#45;&gt;next_instruction_1 -->
<g id="edge3" class="edge">
<title>0&#45;&gt;next_instruction_1</title>
<path fill="none" stroke="black" d="M145.27,-935.7C156.29,-926.29 170.02,-914.57 181.74,-904.57"/>
<polygon fill="black" stroke="black" points="184.13,-907.12 189.46,-897.97 179.59,-901.8 184.13,-907.12"/>
</g>
<!-- 1 -->
<g id="node5" class="node">
<title>1</title>
<polygon fill="none" stroke="black" points="234.37,-828 179.63,-828 179.63,-792 234.37,-792 234.37,-828"/>
<text text-anchor="middle" x="207" y="-805.8" font-family="Times,serif" font-size="14.00">GOTO</text>
</g>
<!-- next_instruction_1&#45;&gt;1 -->
<g id="edge4" class="edge">
<title>next_instruction_1&#45;&gt;1</title>
<path fill="none" stroke="black" d="M207,-863.7C207,-855.98 207,-846.71 207,-838.11"/>
<polygon fill="black" stroke="black" points="210.5,-838.1 207,-828.1 203.5,-838.1 210.5,-838.1"/>
</g>
<!-- label_5 -->
<g id="node6" class="node">
<title>label_5</title>
<polygon fill="none" stroke="black" points="207.71,-756 150.29,-756 150.29,-720 207.71,-720 207.71,-756"/>
<text text-anchor="middle" x="179" y="-733.8" font-family="Times,serif" font-size="14.00">label_2</text>
</g>
<!-- 1&#45;&gt;label_5 -->
<g id="edge5" class="edge">
<title>1&#45;&gt;label_5</title>
<path fill="none" stroke="black" d="M200.08,-791.7C196.93,-783.81 193.12,-774.3 189.62,-765.55"/>
<polygon fill="black" stroke="black" points="192.81,-764.09 185.84,-756.1 186.31,-766.69 192.81,-764.09"/>
</g>
<!-- next_instruction_2 -->
<g id="node28" class="node">
<title>next_instruction_2</title>
<ellipse fill="none" stroke="black" cx="314" cy="-666" rx="36.56" ry="18"/>
<text text-anchor="middle" x="314" y="-661.8" font-family="Times,serif" font-size="14.00">NEXT</text>
</g>
<!-- 1&#45;&gt;next_instruction_2 -->
<g id="edge6" class="edge">
<title>1&#45;&gt;next_instruction_2</title>
<path fill="none" stroke="black" d="M219.91,-791.87C238.75,-766.87 273.88,-720.25 295.47,-691.59"/>
<polygon fill="black" stroke="black" points="298.49,-693.4 301.71,-683.31 292.9,-689.19 298.49,-693.4"/>
</g>
<!-- next_instruction_6 -->
<g id="node7" class="node">
<title>next_instruction_6</title>
<ellipse fill="none" stroke="black" cx="179" cy="-666" rx="36.56" ry="18"/>
<text text-anchor="middle" x="179" y="-661.8" font-family="Times,serif" font-size="14.00">NEXT</text>
</g>
<!-- label_5&#45;&gt;next_instruction_6 -->
<g id="edge7" class="edge">
<title>label_5&#45;&gt;next_instruction_6</title>
<path fill="none" stroke="black" d="M179,-719.7C179,-711.98 179,-702.71 179,-694.11"/>
<polygon fill="black" stroke="black" points="182.5,-694.1 179,-684.1 175.5,-694.1 182.5,-694.1"/>
</g>
<!-- 6 -->
<g id="node8" class="node">
<title>6</title>
<polygon fill="none" stroke="black" points="179,-612 28.03,-594 179,-576 329.97,-594 179,-612"/>
<text text-anchor="middle" x="179" y="-589.8" font-family="Times,serif" font-size="14.00">CONDITIONAL GOTO</text>
</g>
<!-- next_instruction_6&#45;&gt;6 -->
<g id="edge8" class="edge">
<title>next_instruction_6&#45;&gt;6</title>
<path fill="none" stroke="black" d="M179,-647.7C179,-639.98 179,-630.71 179,-622.11"/>
<polygon fill="black" stroke="black" points="182.5,-622.1 179,-612.1 175.5,-622.1 182.5,-622.1"/>
</g>
<!-- binop_6 -->
<g id="node9" class="node">
<title>binop_6</title>
<polygon fill="none" stroke="black" points="250,-540 196,-540 196,-504 250,-504 250,-540"/>
<text text-anchor="middle" x="223" y="-517.8" font-family="Times,serif" font-size="14.00">&lt;</text>
</g>
<!-- 6&#45;&gt;binop_6 -->
<g id="edge9" class="edge">
<title>6&#45;&gt;binop_6</title>
<path fill="none" stroke="black" d="M188.98,-577.12C194.21,-568.8 200.74,-558.41 206.68,-548.96"/>
<polygon fill="black" stroke="black" points="209.77,-550.62 212.13,-540.29 203.85,-546.9 209.77,-550.62"/>
</g>
<!-- to_label_6 -->
<g id="node12" class="node">
<title>to_label_6</title>
<ellipse fill="none" stroke="black" cx="299" cy="-522" rx="27" ry="18"/>
<text text-anchor="middle" x="299" y="-517.8" font-family="Times,serif" font-size="14.00">true</text>
</g>
<!-- 6&#45;&gt;to_label_6 -->
<g id="edge10" class="edge">
<title>6&#45;&gt;to_label_6</title>
<path fill="none" stroke="black" d="M203.28,-578.83C222.64,-567.54 249.81,-551.7 270.25,-539.77"/>
<polygon fill="black" stroke="black" points="272.25,-542.66 279.12,-534.6 268.72,-536.61 272.25,-542.66"/>
</g>
<!-- to_next_instr_6 -->
<g id="node24" class="node">
<title>to_next_instr_6</title>
<ellipse fill="none" stroke="black" cx="57" cy="-522" rx="29.03" ry="18"/>
<text text-anchor="middle" x="57" y="-517.8" font-family="Times,serif" font-size="14.00">false</text>
</g>
<!-- 6&#45;&gt;to_next_instr_6 -->
<g id="edge11" class="edge">
<title>6&#45;&gt;to_next_instr_6</title>
<path fill="none" stroke="black" d="M154.31,-578.83C134.66,-567.56 107.1,-551.75 86.33,-539.83"/>
<polygon fill="black" stroke="black" points="88.02,-536.76 77.6,-534.82 84.53,-542.83 88.02,-536.76"/>
</g>
<!-- next_instruction_7 -->
<g id="node25" class="node">
<title>next_instruction_7</title>
<ellipse fill="none" stroke="black" cx="141" cy="-522" rx="36.56" ry="18"/>
<text text-anchor="middle" x="141" y="-517.8" font-family="Times,serif" font-size="14.00">NEXT</text>
</g>
<!-- 6&#45;&gt;next_instruction_7 -->
<g id="edge12" class="edge">
<title>6&#45;&gt;next_instruction_7</title>
<path fill="none" stroke="black" d="M170.19,-576.76C165.65,-568.4 160.01,-558.02 154.9,-548.61"/>
<polygon fill="black" stroke="black" points="157.88,-546.75 150.03,-539.63 151.72,-550.09 157.88,-546.75"/>
</g>
<!-- var_6 -->
<g id="node10" class="node">
<title>var_6</title>
<ellipse fill="none" stroke="black" cx="203" cy="-450" rx="27" ry="18"/>
<text text-anchor="middle" x="203" y="-445.8" font-family="Times,serif" font-size="14.00">N</text>
</g>
<!-- binop_6&#45;&gt;var_6 -->
<g id="edge13" class="edge">
<title>binop_6&#45;&gt;var_6</title>
<path fill="none" stroke="black" d="M218.06,-503.7C215.83,-495.9 213.15,-486.51 210.67,-477.83"/>
<polygon fill="black" stroke="black" points="214,-476.76 207.89,-468.1 207.27,-478.68 214,-476.76"/>
</g>
<!-- lit_6 -->
<g id="node11" class="node">
<title>lit_6</title>
<ellipse fill="none" stroke="black" cx="275" cy="-450" rx="27" ry="18"/>
<text text-anchor="middle" x="275" y="-445.8" font-family="Times,serif" font-size="14.00">10</text>
</g>
<!-- binop_6&#45;&gt;lit_6 -->
<g id="edge14" class="edge">
<title>binop_6&#45;&gt;lit_6</title>
<path fill="none" stroke="black" d="M235.85,-503.7C242.3,-495.02 250.21,-484.37 257.23,-474.92"/>
<polygon fill="black" stroke="black" points="260.2,-476.79 263.36,-466.67 254.59,-472.61 260.2,-476.79"/>
</g>
<!-- label_2 -->
<g id="node13" class="node">
<title>label_2</title>
<ellipse fill="none" stroke="black" cx="359" cy="-450" rx="39.43" ry="18"/>
<text text-anchor="middle" x="359" y="-445.8" font-family="Times,serif" font-size="14.00">label_1</text>
</g>
<!-- to_label_6&#45;&gt;label_2 -->
<g id="edge15" class="edge">
<title>to_label_6&#45;&gt;label_2</title>
<path fill="none" stroke="black" d="M312.02,-505.81C319.74,-496.8 329.71,-485.18 338.47,-474.95"/>
<polygon fill="black" stroke="black" points="341.32,-477 345.17,-467.13 336.01,-472.45 341.32,-477"/>
</g>
<!-- next_instruction_3 -->
<g id="node14" class="node">
<title>next_instruction_3</title>
<ellipse fill="none" stroke="black" cx="285" cy="-378" rx="36.56" ry="18"/>
<text text-anchor="middle" x="285" y="-373.8" font-family="Times,serif" font-size="14.00">NEXT</text>
</g>
<!-- label_2&#45;&gt;next_instruction_3 -->
<g id="edge16" class="edge">
<title>label_2&#45;&gt;next_instruction_3</title>
<path fill="none" stroke="black" d="M342.58,-433.46C332.54,-423.97 319.55,-411.68 308.45,-401.18"/>
<polygon fill="black" stroke="black" points="310.79,-398.58 301.12,-394.25 305.98,-403.67 310.79,-398.58"/>
</g>
<!-- 3 -->
<g id="node15" class="node">
<title>3</title>
<polygon fill="none" stroke="black" points="339.16,-324 248.23,-324 224.84,-288 315.77,-288 339.16,-324"/>
<text text-anchor="middle" x="282" y="-301.8" font-family="Times,serif" font-size="14.00">PRINT</text>
</g>
<!-- next_instruction_3&#45;&gt;3 -->
<g id="edge17" class="edge">
<title>next_instruction_3&#45;&gt;3</title>
<path fill="none" stroke="black" d="M284.26,-359.7C283.93,-351.98 283.53,-342.71 283.16,-334.11"/>
<polygon fill="black" stroke="black" points="286.66,-333.95 282.73,-324.1 279.66,-334.25 286.66,-333.95"/>
</g>
<!-- var_3 -->
<g id="node16" class="node">
<title>var_3</title>
<ellipse fill="none" stroke="black" cx="282" cy="-234" rx="27" ry="18"/>
<text text-anchor="middle" x="282" y="-229.8" font-family="Times,serif" font-size="14.00">N</text>
</g>
<!-- 3&#45;&gt;var_3 -->
<g id="edge18" class="edge">
<title>3&#45;&gt;var_3</title>
<path fill="none" stroke="black" d="M282,-287.7C282,-279.98 282,-270.71 282,-262.11"/>
<polygon fill="black" stroke="black" points="285.5,-262.1 282,-252.1 278.5,-262.1 285.5,-262.1"/>
</g>
<!-- next_instruction_4 -->
<g id="node17" class="node">
<title>next_instruction_4</title>
<ellipse fill="none" stroke="black" cx="194" cy="-234" rx="36.56" ry="18"/>
<text text-anchor="middle" x="194" y="-229.8" font-family="Times,serif" font-size="14.00">NEXT</text>
</g>
<!-- 3&#45;&gt;next_instruction_4 -->
<g id="edge19" class="edge">
<title>3&#45;&gt;next_instruction_4</title>
<path fill="none" stroke="black" d="M260.25,-287.7C248.22,-278.13 233.19,-266.17 220.49,-256.07"/>
<polygon fill="black" stroke="black" points="222.53,-253.22 212.53,-249.74 218.18,-258.7 222.53,-253.22"/>
</g>
<!-- 4 -->
<g id="node18" class="node">
<title>4</title>
<polygon fill="none" stroke="black" points="215.05,-180 148.95,-180 148.95,-144 215.05,-144 215.05,-180"/>
<text text-anchor="middle" x="182" y="-157.8" font-family="Times,serif" font-size="14.00">ASSIGN</text>
</g>
<!-- next_instruction_4&#45;&gt;4 -->
<g id="edge20" class="edge">
<title>next_instruction_4&#45;&gt;4</title>
<path fill="none" stroke="black" d="M191.1,-216.05C189.77,-208.35 188.18,-199.03 186.69,-190.36"/>
<polygon fill="black" stroke="black" points="190.1,-189.54 184.96,-180.28 183.2,-190.72 190.1,-189.54"/>
</g>
<!-- id_4 -->
<g id="node19" class="node">
<title>id_4</title>
<ellipse fill="none" stroke="black" cx="223" cy="-90" rx="33.67" ry="18"/>
<text text-anchor="middle" x="223" y="-85.8" font-family="Times,serif" font-size="14.00">Int: N</text>
</g>
<!-- 4&#45;&gt;id_4 -->
<g id="edge21" class="edge">
<title>4&#45;&gt;id_4</title>
<path fill="none" stroke="black" d="M192.13,-143.7C196.97,-135.44 202.85,-125.39 208.18,-116.3"/>
<polygon fill="black" stroke="black" points="211.23,-118.02 213.26,-107.62 205.19,-114.48 211.23,-118.02"/>
</g>
<!-- binop_4 -->
<g id="node20" class="node">
<title>binop_4</title>
<polygon fill="none" stroke="black" points="171,-108 117,-108 117,-72 171,-72 171,-108"/>
<text text-anchor="middle" x="144" y="-85.8" font-family="Times,serif" font-size="14.00">+</text>
</g>
<!-- 4&#45;&gt;binop_4 -->
<g id="edge22" class="edge">
<title>4&#45;&gt;binop_4</title>
<path fill="none" stroke="black" d="M172.61,-143.7C168.24,-135.64 162.94,-125.89 158.1,-116.98"/>
<polygon fill="black" stroke="black" points="161.13,-115.22 153.29,-108.1 154.98,-118.56 161.13,-115.22"/>
</g>
<!-- next_instruction_5 -->
<g id="node23" class="node">
<title>next_instruction_5</title>
<ellipse fill="none" stroke="black" cx="39" cy="-90" rx="36.56" ry="18"/>
<text text-anchor="middle" x="39" y="-85.8" font-family="Times,serif" font-size="14.00">NEXT</text>
</g>
<!-- 4&#45;&gt;next_instruction_5 -->
<g id="edge23" class="edge">
<title>4&#45;&gt;next_instruction_5</title>
<path fill="none" stroke="black" d="M148.83,-144.76C126.21,-133.69 96.31,-119.06 73.42,-107.85"/>
<polygon fill="black" stroke="black" points="74.92,-104.69 64.4,-103.43 71.84,-110.97 74.92,-104.69"/>
</g>
<!-- var_4 -->
<g id="node21" class="node">
<title>var_4</title>
<ellipse fill="none" stroke="black" cx="108" cy="-18" rx="27" ry="18"/>
<text text-anchor="middle" x="108" y="-13.8" font-family="Times,serif" font-size="14.00">N</text>
</g>
<!-- binop_4&#45;&gt;var_4 -->
<g id="edge24" class="edge">
<title>binop_4&#45;&gt;var_4</title>
<path fill="none" stroke="black" d="M135.1,-71.7C130.84,-63.4 125.65,-53.31 120.95,-44.19"/>
<polygon fill="black" stroke="black" points="123.99,-42.44 116.3,-35.14 117.76,-45.64 123.99,-42.44"/>
</g>
<!-- lit_4 -->
<g id="node22" class="node">
<title>lit_4</title>
<ellipse fill="none" stroke="black" cx="180" cy="-18" rx="27" ry="18"/>
<text text-anchor="middle" x="180" y="-13.8" font-family="Times,serif" font-size="14.00">2</text>
</g>
<!-- binop_4&#45;&gt;lit_4 -->
<g id="edge25" class="edge">
<title>binop_4&#45;&gt;lit_4</title>
<path fill="none" stroke="black" d="M152.9,-71.7C157.16,-63.4 162.35,-53.31 167.05,-44.19"/>
<polygon fill="black" stroke="black" points="170.24,-45.64 171.7,-35.14 164.01,-42.44 170.24,-45.64"/>
</g>
<!-- next_instruction_5&#45;&gt;label_5 -->
<g id="edge26" class="edge">
<title>next_instruction_5&#45;&gt;label_5</title>
<path fill="none" stroke="black" d="M31.29,-107.64C19.93,-133.76 0,-186.21 0,-233 0,-595 0,-595 0,-595 0,-666.18 87.94,-707.34 140.54,-725.59"/>
<polygon fill="black" stroke="black" points="139.65,-728.98 150.24,-728.84 141.87,-722.35 139.65,-728.98"/>
</g>
<!-- 7 -->
<g id="node29" class="node">
<title>7</title>
<ellipse fill="none" stroke="black" cx="55" cy="-450" rx="27" ry="18"/>
<text text-anchor="middle" x="55" y="-445.8" font-family="Times,serif" font-size="14.00">7</text>
</g>
<!-- to_next_instr_6&#45;&gt;7 -->
<g id="edge27" class="edge">
<title>to_next_instr_6&#45;&gt;7</title>
<path fill="none" stroke="black" d="M56.51,-503.7C56.29,-495.98 56.02,-486.71 55.77,-478.11"/>
<polygon fill="black" stroke="black" points="59.27,-478 55.49,-468.1 52.28,-478.2 59.27,-478"/>
</g>
<!-- label_7 -->
<g id="node26" class="node">
<title>label_7</title>
<polygon fill="none" stroke="black" points="157.71,-468 100.29,-468 100.29,-432 157.71,-432 157.71,-468"/>
<text text-anchor="middle" x="129" y="-445.8" font-family="Times,serif" font-size="14.00">label_3</text>
</g>
<!-- next_instruction_7&#45;&gt;label_7 -->
<g id="edge28" class="edge">
<title>next_instruction_7&#45;&gt;label_7</title>
<path fill="none" stroke="black" d="M138.1,-504.05C136.77,-496.35 135.18,-487.03 133.69,-478.36"/>
<polygon fill="black" stroke="black" points="137.1,-477.54 131.96,-468.28 130.2,-478.72 137.1,-477.54"/>
</g>
<!-- END -->
<g id="node27" class="node">
<title>END</title>
<polygon fill="none" stroke="black" points="156,-396 102,-396 102,-360 156,-360 156,-396"/>
<text text-anchor="middle" x="129" y="-373.8" font-family="Times,serif" font-size="14.00">HALT</text>
</g>
<!-- label_7&#45;&gt;END -->
<g id="edge29" class="edge">
<title>label_7&#45;&gt;END</title>
<path fill="none" stroke="black" d="M129,-431.7C129,-423.98 129,-414.71 129,-406.11"/>
<polygon fill="black" stroke="black" points="132.5,-406.1 129,-396.1 125.5,-406.1 132.5,-406.1"/>
</g>
<!-- next_instruction_2&#45;&gt;label_2 -->
<g id="edge30" class="edge">
<title>next_instruction_2&#45;&gt;label_2</title>
<path fill="none" stroke="black" d="M323.53,-648.35C328.93,-638.17 335.32,-624.7 339,-612 352.25,-566.31 356.72,-510.82 358.23,-478.36"/>
<polygon fill="black" stroke="black" points="361.73,-478.41 358.64,-468.28 354.74,-478.13 361.73,-478.41"/>
</g>
</g>
</svg>
